G04 #@! TF.GenerationSoftware,KiCad,Pcbnew,8.0.7-8.0.7-0~ubuntu24.04.1*
G04 #@! TF.CreationDate,2025-01-16T17:51:39-05:00*
G04 #@! TF.ProjectId,tophat,746f7068-6174-42e6-9b69-6361645f7063,rev?*
G04 #@! TF.SameCoordinates,Original*
G04 #@! TF.FileFunction,Copper,L2,Bot*
G04 #@! TF.FilePolarity,Positive*
%FSLAX46Y46*%
G04 Gerber Fmt 4.6, Leading zero omitted, Abs format (unit mm)*
G04 Created by KiCad (PCBNEW 8.0.7-8.0.7-0~ubuntu24.04.1) date 2025-01-16 17:51:39*
%MOMM*%
%LPD*%
G01*
G04 APERTURE LIST*
G04 Aperture macros list*
%AMRoundRect*
0 Rectangle with rounded corners*
0 $1 Rounding radius*
0 $2 $3 $4 $5 $6 $7 $8 $9 X,Y pos of 4 corners*
0 Add a 4 corners polygon primitive as box body*
4,1,4,$2,$3,$4,$5,$6,$7,$8,$9,$2,$3,0*
0 Add four circle primitives for the rounded corners*
1,1,$1+$1,$2,$3*
1,1,$1+$1,$4,$5*
1,1,$1+$1,$6,$7*
1,1,$1+$1,$8,$9*
0 Add four rect primitives between the rounded corners*
20,1,$1+$1,$2,$3,$4,$5,0*
20,1,$1+$1,$4,$5,$6,$7,0*
20,1,$1+$1,$6,$7,$8,$9,0*
20,1,$1+$1,$8,$9,$2,$3,0*%
G04 Aperture macros list end*
G04 #@! TA.AperFunction,ComponentPad*
%ADD10R,1.700000X1.700000*%
G04 #@! TD*
G04 #@! TA.AperFunction,ComponentPad*
%ADD11O,1.700000X1.700000*%
G04 #@! TD*
G04 #@! TA.AperFunction,ComponentPad*
%ADD12RoundRect,0.250000X0.600000X0.725000X-0.600000X0.725000X-0.600000X-0.725000X0.600000X-0.725000X0*%
G04 #@! TD*
G04 #@! TA.AperFunction,ComponentPad*
%ADD13O,1.700000X1.950000*%
G04 #@! TD*
G04 #@! TA.AperFunction,ViaPad*
%ADD14C,0.600000*%
G04 #@! TD*
G04 #@! TA.AperFunction,Conductor*
%ADD15C,0.250000*%
G04 #@! TD*
G04 APERTURE END LIST*
D10*
X127940000Y-97460000D03*
D11*
X130480000Y-97460000D03*
X133020000Y-97460000D03*
X135560000Y-97460000D03*
X138100000Y-97460000D03*
X140640000Y-97460000D03*
X143180000Y-97460000D03*
X145720000Y-97460000D03*
D10*
X150800000Y-97460000D03*
D11*
X153340000Y-97460000D03*
X155880000Y-97460000D03*
X158420000Y-97460000D03*
X160960000Y-97460000D03*
X163500000Y-97460000D03*
D10*
X118796000Y-49200000D03*
D11*
X121336000Y-49200000D03*
X123876000Y-49200000D03*
X126416000Y-49200000D03*
X128956000Y-49200000D03*
X131496000Y-49200000D03*
X134036000Y-49200000D03*
X136576000Y-49200000D03*
X139116000Y-49200000D03*
X141656000Y-49200000D03*
D10*
X145720000Y-49200000D03*
D11*
X148260000Y-49200000D03*
X150800000Y-49200000D03*
X153340000Y-49200000D03*
X155880000Y-49200000D03*
X158420000Y-49200000D03*
X160960000Y-49200000D03*
X163500000Y-49200000D03*
D12*
X148500000Y-70025000D03*
D13*
X146000000Y-70025000D03*
X143500000Y-70025000D03*
D12*
X148500000Y-84525000D03*
D13*
X146000000Y-84525000D03*
X143500000Y-84525000D03*
D12*
X148550000Y-77325000D03*
D13*
X146050000Y-77325000D03*
X143550000Y-77325000D03*
D14*
X160000000Y-51500000D03*
X135500000Y-63000000D03*
X116500000Y-89500000D03*
X120000000Y-89500000D03*
X125500000Y-89500000D03*
X132821935Y-55192794D03*
X124500000Y-63000000D03*
X130000000Y-58875000D03*
X129500000Y-60500000D03*
X132150000Y-66703664D03*
X129500000Y-66703664D03*
X132000000Y-52000000D03*
X132125000Y-54800003D03*
X139000000Y-69703664D03*
X132000000Y-71500000D03*
X130500000Y-86500000D03*
D15*
X124500000Y-63000000D02*
X124500000Y-51116000D01*
X124500000Y-51116000D02*
X126416000Y-49200000D01*
X163500000Y-49200000D02*
X159700000Y-53000000D01*
X159700000Y-53000000D02*
X133000000Y-53000000D01*
X133000000Y-53000000D02*
X133000000Y-55014729D01*
X133000000Y-55014729D02*
X132821935Y-55192794D01*
X132125000Y-52800003D02*
X132125000Y-54800003D01*
X158420000Y-49200000D02*
X156120000Y-51500000D01*
X156120000Y-51500000D02*
X132500000Y-51500000D01*
X132500000Y-51500000D02*
X132000000Y-52000000D01*
X132425003Y-52500000D02*
X157660000Y-52500000D01*
X132125000Y-52800003D02*
X132425003Y-52500000D01*
X132000000Y-71500000D02*
X133500000Y-71500000D01*
X133500000Y-71500000D02*
X134296336Y-70703664D01*
X134296336Y-70703664D02*
X139000000Y-70703664D01*
X130000000Y-58875000D02*
X130000000Y-60000000D01*
X130000000Y-60000000D02*
X129500000Y-60500000D01*
X132150000Y-66703664D02*
X129500000Y-66703664D01*
X160960000Y-49200000D02*
X157660000Y-52500000D01*
X143500000Y-69825000D02*
X143500000Y-84525000D01*
X139000000Y-70703664D02*
X143500000Y-70703664D01*
X139000000Y-69703664D02*
X139000000Y-70703664D01*
X133020000Y-89020000D02*
X130500000Y-86500000D01*
X133020000Y-97460000D02*
X133020000Y-89020000D01*
G04 #@! TA.AperFunction,Conductor*
G36*
X142714075Y-97267007D02*
G01*
X142680000Y-97394174D01*
X142680000Y-97525826D01*
X142714075Y-97652993D01*
X142746988Y-97710000D01*
X141073012Y-97710000D01*
X141105925Y-97652993D01*
X141140000Y-97525826D01*
X141140000Y-97394174D01*
X141105925Y-97267007D01*
X141073012Y-97210000D01*
X142746988Y-97210000D01*
X142714075Y-97267007D01*
G37*
G04 #@! TD.AperFunction*
G04 #@! TA.AperFunction,Conductor*
G36*
X160594237Y-50396607D02*
G01*
X160742023Y-50436207D01*
X160929787Y-50452633D01*
X160959998Y-50455277D01*
X160960000Y-50455277D01*
X160960002Y-50455277D01*
X160988254Y-50452805D01*
X161177977Y-50436207D01*
X161199036Y-50430564D01*
X161268885Y-50432227D01*
X161326747Y-50471389D01*
X161354252Y-50535617D01*
X161342666Y-50604520D01*
X161318810Y-50638020D01*
X159518650Y-52438181D01*
X159457327Y-52471666D01*
X159430969Y-52474500D01*
X158728031Y-52474500D01*
X158660992Y-52454815D01*
X158615237Y-52402011D01*
X158605293Y-52332853D01*
X158634318Y-52269297D01*
X158640350Y-52262819D01*
X159080507Y-51822662D01*
X160474467Y-50428700D01*
X160535788Y-50395217D01*
X160594237Y-50396607D01*
G37*
G04 #@! TD.AperFunction*
G04 #@! TA.AperFunction,Conductor*
G36*
X163484404Y-46755185D02*
G01*
X163505046Y-46771819D01*
X165928181Y-49194954D01*
X165961666Y-49256277D01*
X165964500Y-49282635D01*
X165964500Y-59344982D01*
X165964500Y-59375018D01*
X165975994Y-59402767D01*
X165975995Y-59402768D01*
X168468181Y-61894954D01*
X168501666Y-61956277D01*
X168504500Y-61982635D01*
X168504500Y-96107364D01*
X168484815Y-96174403D01*
X168468181Y-96195045D01*
X165997233Y-98665994D01*
X165975995Y-98687231D01*
X165964500Y-98714982D01*
X165964500Y-99231907D01*
X165963903Y-99244062D01*
X165952505Y-99359778D01*
X165947763Y-99383618D01*
X165917832Y-99482290D01*
X165915789Y-99489024D01*
X165906486Y-99511482D01*
X165854561Y-99608627D01*
X165841056Y-99628839D01*
X165771176Y-99713988D01*
X165753988Y-99731176D01*
X165668839Y-99801056D01*
X165648627Y-99814561D01*
X165551482Y-99866486D01*
X165529028Y-99875787D01*
X165487028Y-99888528D01*
X165423618Y-99907763D01*
X165399778Y-99912505D01*
X165291162Y-99923203D01*
X165284060Y-99923903D01*
X165271907Y-99924500D01*
X100768093Y-99924500D01*
X100755939Y-99923903D01*
X100747995Y-99923120D01*
X100640221Y-99912505D01*
X100616381Y-99907763D01*
X100599445Y-99902625D01*
X100510968Y-99875786D01*
X100488517Y-99866486D01*
X100391372Y-99814561D01*
X100371160Y-99801056D01*
X100286011Y-99731176D01*
X100268823Y-99713988D01*
X100198943Y-99628839D01*
X100185438Y-99608627D01*
X100133510Y-99511476D01*
X100124215Y-99489037D01*
X100092234Y-99383612D01*
X100087494Y-99359777D01*
X100076097Y-99244061D01*
X100075500Y-99231907D01*
X100075500Y-97199500D01*
X100095185Y-97132461D01*
X100147989Y-97086706D01*
X100199500Y-97075500D01*
X111515016Y-97075500D01*
X111515018Y-97075500D01*
X111542767Y-97064006D01*
X111564006Y-97042767D01*
X111575500Y-97015018D01*
X111575500Y-96578475D01*
X126689500Y-96578475D01*
X126689500Y-98341517D01*
X126700292Y-98409657D01*
X126704354Y-98435304D01*
X126761950Y-98548342D01*
X126761952Y-98548344D01*
X126761954Y-98548347D01*
X126851652Y-98638045D01*
X126851654Y-98638046D01*
X126851658Y-98638050D01*
X126948181Y-98687231D01*
X126964698Y-98695647D01*
X127058475Y-98710499D01*
X127058481Y-98710500D01*
X128821518Y-98710499D01*
X128915304Y-98695646D01*
X129028342Y-98638050D01*
X129118050Y-98548342D01*
X129175646Y-98435304D01*
X129175646Y-98435302D01*
X129175647Y-98435301D01*
X129190499Y-98341524D01*
X129190500Y-98341519D01*
X129190499Y-98191859D01*
X129210183Y-98124823D01*
X129262987Y-98079068D01*
X129332145Y-98069124D01*
X129395701Y-98098149D01*
X129416073Y-98120738D01*
X129518402Y-98266877D01*
X129673123Y-98421598D01*
X129852361Y-98547102D01*
X130050670Y-98639575D01*
X130262023Y-98696207D01*
X130444926Y-98712208D01*
X130479998Y-98715277D01*
X130480000Y-98715277D01*
X130480002Y-98715277D01*
X130508254Y-98712805D01*
X130697977Y-98696207D01*
X130909330Y-98639575D01*
X131107639Y-98547102D01*
X131286877Y-98421598D01*
X131441598Y-98266877D01*
X131567102Y-98087639D01*
X131637618Y-97936414D01*
X131683790Y-97883977D01*
X131750984Y-97864825D01*
X131817865Y-97885041D01*
X131862381Y-97936414D01*
X131932898Y-98087639D01*
X132058402Y-98266877D01*
X132213123Y-98421598D01*
X132392361Y-98547102D01*
X132590670Y-98639575D01*
X132802023Y-98696207D01*
X132984926Y-98712208D01*
X133019998Y-98715277D01*
X133020000Y-98715277D01*
X133020002Y-98715277D01*
X133048254Y-98712805D01*
X133237977Y-98696207D01*
X133449330Y-98639575D01*
X133647639Y-98547102D01*
X133826877Y-98421598D01*
X133981598Y-98266877D01*
X134107102Y-98087639D01*
X134177618Y-97936414D01*
X134223790Y-97883977D01*
X134290984Y-97864825D01*
X134357865Y-97885041D01*
X134402381Y-97936414D01*
X134472898Y-98087639D01*
X134598402Y-98266877D01*
X134753123Y-98421598D01*
X134932361Y-98547102D01*
X135130670Y-98639575D01*
X135342023Y-98696207D01*
X135524926Y-98712208D01*
X135559998Y-98715277D01*
X135560000Y-98715277D01*
X135560002Y-98715277D01*
X135588254Y-98712805D01*
X135777977Y-98696207D01*
X135989330Y-98639575D01*
X136187639Y-98547102D01*
X136366877Y-98421598D01*
X136521598Y-98266877D01*
X136647102Y-98087639D01*
X136717618Y-97936414D01*
X136763790Y-97883977D01*
X136830984Y-97864825D01*
X136897865Y-97885041D01*
X136942381Y-97936414D01*
X137012898Y-98087639D01*
X137138402Y-98266877D01*
X137293123Y-98421598D01*
X137472361Y-98547102D01*
X137670670Y-98639575D01*
X137882023Y-98696207D01*
X138064926Y-98712208D01*
X138099998Y-98715277D01*
X138100000Y-98715277D01*
X138100002Y-98715277D01*
X138128254Y-98712805D01*
X138317977Y-98696207D01*
X138529330Y-98639575D01*
X138727639Y-98547102D01*
X138906877Y-98421598D01*
X139061598Y-98266877D01*
X139187102Y-98087639D01*
X139202726Y-98054132D01*
X139248896Y-98001695D01*
X139316090Y-97982543D01*
X139382971Y-98002758D01*
X139427489Y-98054134D01*
X139466399Y-98137578D01*
X139601894Y-98331082D01*
X139768917Y-98498105D01*
X139962421Y-98633600D01*
X140176507Y-98733429D01*
X140176516Y-98733433D01*
X140390000Y-98790634D01*
X140390000Y-97893012D01*
X140447007Y-97925925D01*
X140574174Y-97960000D01*
X140705826Y-97960000D01*
X140832993Y-97925925D01*
X140890000Y-97893012D01*
X140890000Y-98790634D01*
X141103483Y-98733433D01*
X141103492Y-98733429D01*
X141317578Y-98633600D01*
X141511082Y-98498105D01*
X141678105Y-98331082D01*
X141808425Y-98144968D01*
X141863002Y-98101344D01*
X141932501Y-98094151D01*
X141994855Y-98125673D01*
X142011575Y-98144968D01*
X142141894Y-98331082D01*
X142308917Y-98498105D01*
X142502421Y-98633600D01*
X142716507Y-98733429D01*
X142716516Y-98733433D01*
X142930000Y-98790634D01*
X142930000Y-97893012D01*
X142987007Y-97925925D01*
X143114174Y-97960000D01*
X143245826Y-97960000D01*
X143372993Y-97925925D01*
X143430000Y-97893012D01*
X143430000Y-98790633D01*
X143643483Y-98733433D01*
X143643492Y-98733429D01*
X143857578Y-98633600D01*
X144051082Y-98498105D01*
X144218105Y-98331082D01*
X144353598Y-98137580D01*
X144392509Y-98054135D01*
X144438681Y-98001695D01*
X144505875Y-97982543D01*
X144572756Y-98002758D01*
X144617273Y-98054133D01*
X144624264Y-98069124D01*
X144632898Y-98087639D01*
X144758402Y-98266877D01*
X144913123Y-98421598D01*
X145092361Y-98547102D01*
X145290670Y-98639575D01*
X145502023Y-98696207D01*
X145684926Y-98712208D01*
X145719998Y-98715277D01*
X145720000Y-98715277D01*
X145720002Y-98715277D01*
X145748254Y-98712805D01*
X145937977Y-98696207D01*
X146149330Y-98639575D01*
X146347639Y-98547102D01*
X146526877Y-98421598D01*
X146681598Y-98266877D01*
X146807102Y-98087639D01*
X146899575Y-97889330D01*
X146956207Y-97677977D01*
X146975277Y-97460000D01*
X146956207Y-97242023D01*
X146908507Y-97064004D01*
X146899577Y-97030677D01*
X146899576Y-97030676D01*
X146899575Y-97030670D01*
X146807102Y-96832362D01*
X146807100Y-96832359D01*
X146807099Y-96832357D01*
X146681599Y-96653124D01*
X146606950Y-96578475D01*
X149549500Y-96578475D01*
X149549500Y-98341517D01*
X149560292Y-98409657D01*
X149564354Y-98435304D01*
X149621950Y-98548342D01*
X149621952Y-98548344D01*
X149621954Y-98548347D01*
X149711652Y-98638045D01*
X149711654Y-98638046D01*
X149711658Y-98638050D01*
X149808181Y-98687231D01*
X149824698Y-98695647D01*
X149918475Y-98710499D01*
X149918481Y-98710500D01*
X151681518Y-98710499D01*
X151775304Y-98695646D01*
X151888342Y-98638050D01*
X151978050Y-98548342D01*
X152035646Y-98435304D01*
X152035646Y-98435302D01*
X152035647Y-98435301D01*
X152050499Y-98341524D01*
X152050500Y-98341519D01*
X152050499Y-98191859D01*
X152070183Y-98124823D01*
X152122987Y-98079068D01*
X152192145Y-98069124D01*
X152255701Y-98098149D01*
X152276073Y-98120738D01*
X152378402Y-98266877D01*
X152533123Y-98421598D01*
X152712361Y-98547102D01*
X152910670Y-98639575D01*
X153122023Y-98696207D01*
X153304926Y-98712208D01*
X153339998Y-98715277D01*
X153340000Y-98715277D01*
X153340002Y-98715277D01*
X153368254Y-98712805D01*
X153557977Y-98696207D01*
X153769330Y-98639575D01*
X153967639Y-98547102D01*
X154146877Y-98421598D01*
X154301598Y-98266877D01*
X154427102Y-98087639D01*
X154497618Y-97936414D01*
X154543790Y-97883977D01*
X154610984Y-97864825D01*
X154677865Y-97885041D01*
X154722381Y-97936414D01*
X154792898Y-98087639D01*
X154918402Y-98266877D01*
X155073123Y-98421598D01*
X155252361Y-98547102D01*
X155450670Y-98639575D01*
X155662023Y-98696207D01*
X155844926Y-98712208D01*
X155879998Y-98715277D01*
X155880000Y-98715277D01*
X155880002Y-98715277D01*
X155908254Y-98712805D01*
X156097977Y-98696207D01*
X156309330Y-98639575D01*
X156507639Y-98547102D01*
X156686877Y-98421598D01*
X156841598Y-98266877D01*
X156967102Y-98087639D01*
X157037618Y-97936414D01*
X157083790Y-97883977D01*
X157150984Y-97864825D01*
X157217865Y-97885041D01*
X157262381Y-97936414D01*
X157332898Y-98087639D01*
X157458402Y-98266877D01*
X157613123Y-98421598D01*
X157792361Y-98547102D01*
X157990670Y-98639575D01*
X158202023Y-98696207D01*
X158384926Y-98712208D01*
X158419998Y-98715277D01*
X158420000Y-98715277D01*
X158420002Y-98715277D01*
X158448254Y-98712805D01*
X158637977Y-98696207D01*
X158849330Y-98639575D01*
X159047639Y-98547102D01*
X159226877Y-98421598D01*
X159381598Y-98266877D01*
X159507102Y-98087639D01*
X159577618Y-97936414D01*
X159623790Y-97883977D01*
X159690984Y-97864825D01*
X159757865Y-97885041D01*
X159802381Y-97936414D01*
X159872898Y-98087639D01*
X159998402Y-98266877D01*
X160153123Y-98421598D01*
X160332361Y-98547102D01*
X160530670Y-98639575D01*
X160742023Y-98696207D01*
X160924926Y-98712208D01*
X160959998Y-98715277D01*
X160960000Y-98715277D01*
X160960002Y-98715277D01*
X160988254Y-98712805D01*
X161177977Y-98696207D01*
X161389330Y-98639575D01*
X161587639Y-98547102D01*
X161766877Y-98421598D01*
X161921598Y-98266877D01*
X162047102Y-98087639D01*
X162117618Y-97936414D01*
X162163790Y-97883977D01*
X162230984Y-97864825D01*
X162297865Y-97885041D01*
X162342381Y-97936414D01*
X162412898Y-98087639D01*
X162538402Y-98266877D01*
X162693123Y-98421598D01*
X162872361Y-98547102D01*
X163070670Y-98639575D01*
X163282023Y-98696207D01*
X163464926Y-98712208D01*
X163499998Y-98715277D01*
X163500000Y-98715277D01*
X163500002Y-98715277D01*
X163528254Y-98712805D01*
X163717977Y-98696207D01*
X163929330Y-98639575D01*
X164127639Y-98547102D01*
X164306877Y-98421598D01*
X164461598Y-98266877D01*
X164587102Y-98087639D01*
X164679575Y-97889330D01*
X164736207Y-97677977D01*
X164755277Y-97460000D01*
X164736207Y-97242023D01*
X164688507Y-97064004D01*
X164679577Y-97030677D01*
X164679576Y-97030676D01*
X164679575Y-97030670D01*
X164587102Y-96832362D01*
X164587100Y-96832359D01*
X164587099Y-96832357D01*
X164461599Y-96653124D01*
X164386950Y-96578475D01*
X164306877Y-96498402D01*
X164127642Y-96372900D01*
X164127638Y-96372897D01*
X163998072Y-96312480D01*
X163929330Y-96280425D01*
X163929326Y-96280424D01*
X163929322Y-96280422D01*
X163717977Y-96223793D01*
X163500002Y-96204723D01*
X163499998Y-96204723D01*
X163354682Y-96217436D01*
X163282023Y-96223793D01*
X163282020Y-96223793D01*
X163070677Y-96280422D01*
X163070670Y-96280424D01*
X163070670Y-96280425D01*
X163067391Y-96281954D01*
X162872361Y-96372898D01*
X162872357Y-96372900D01*
X162693121Y-96498402D01*
X162538402Y-96653121D01*
X162412900Y-96832357D01*
X162412898Y-96832361D01*
X162342382Y-96983583D01*
X162296209Y-97036022D01*
X162229016Y-97055174D01*
X162162135Y-97034958D01*
X162117618Y-96983583D01*
X162062725Y-96865866D01*
X162047102Y-96832362D01*
X162047100Y-96832359D01*
X162047099Y-96832357D01*
X161921599Y-96653124D01*
X161846950Y-96578475D01*
X161766877Y-96498402D01*
X161587642Y-96372900D01*
X161587638Y-96372897D01*
X161458072Y-96312480D01*
X161389330Y-96280425D01*
X161389326Y-96280424D01*
X161389322Y-96280422D01*
X161177977Y-96223793D01*
X160960002Y-96204723D01*
X160959998Y-96204723D01*
X160814682Y-96217436D01*
X160742023Y-96223793D01*
X160742020Y-96223793D01*
X160530677Y-96280422D01*
X160530670Y-96280424D01*
X160530670Y-96280425D01*
X160527391Y-96281954D01*
X160332361Y-96372898D01*
X160332357Y-96372900D01*
X160153121Y-96498402D01*
X159998402Y-96653121D01*
X159872900Y-96832357D01*
X159872898Y-96832361D01*
X159802382Y-96983583D01*
X159756209Y-97036022D01*
X159689016Y-97055174D01*
X159622135Y-97034958D01*
X159577618Y-96983583D01*
X159522725Y-96865866D01*
X159507102Y-96832362D01*
X159507100Y-96832359D01*
X159507099Y-96832357D01*
X159381599Y-96653124D01*
X159306950Y-96578475D01*
X159226877Y-96498402D01*
X159047642Y-96372900D01*
X159047638Y-96372897D01*
X158918072Y-96312480D01*
X158849330Y-96280425D01*
X158849326Y-96280424D01*
X158849322Y-96280422D01*
X158637977Y-96223793D01*
X158420002Y-96204723D01*
X158419998Y-96204723D01*
X158274682Y-96217436D01*
X158202023Y-96223793D01*
X158202020Y-96223793D01*
X157990677Y-96280422D01*
X157990670Y-96280424D01*
X157990670Y-96280425D01*
X157987391Y-96281954D01*
X157792361Y-96372898D01*
X157792357Y-96372900D01*
X157613121Y-96498402D01*
X157458402Y-96653121D01*
X157332900Y-96832357D01*
X157332898Y-96832361D01*
X157262382Y-96983583D01*
X157216209Y-97036022D01*
X157149016Y-97055174D01*
X157082135Y-97034958D01*
X157037618Y-96983583D01*
X156982725Y-96865866D01*
X156967102Y-96832362D01*
X156967100Y-96832359D01*
X156967099Y-96832357D01*
X156841599Y-96653124D01*
X156766950Y-96578475D01*
X156686877Y-96498402D01*
X156507642Y-96372900D01*
X156507638Y-96372897D01*
X156378072Y-96312480D01*
X156309330Y-96280425D01*
X156309326Y-96280424D01*
X156309322Y-96280422D01*
X156097977Y-96223793D01*
X155880002Y-96204723D01*
X155879998Y-96204723D01*
X155734682Y-96217436D01*
X155662023Y-96223793D01*
X155662020Y-96223793D01*
X155450677Y-96280422D01*
X155450670Y-96280424D01*
X155450670Y-96280425D01*
X155447391Y-96281954D01*
X155252361Y-96372898D01*
X155252357Y-96372900D01*
X155073121Y-96498402D01*
X154918402Y-96653121D01*
X154792900Y-96832357D01*
X154792898Y-96832361D01*
X154722382Y-96983583D01*
X154676209Y-97036022D01*
X154609016Y-97055174D01*
X154542135Y-97034958D01*
X154497618Y-96983583D01*
X154442725Y-96865866D01*
X154427102Y-96832362D01*
X154427100Y-96832359D01*
X154427099Y-96832357D01*
X154301599Y-96653124D01*
X154226950Y-96578475D01*
X154146877Y-96498402D01*
X153967642Y-96372900D01*
X153967638Y-96372897D01*
X153838072Y-96312480D01*
X153769330Y-96280425D01*
X153769326Y-96280424D01*
X153769322Y-96280422D01*
X153557977Y-96223793D01*
X153340002Y-96204723D01*
X153339998Y-96204723D01*
X153194682Y-96217436D01*
X153122023Y-96223793D01*
X153122020Y-96223793D01*
X152910677Y-96280422D01*
X152910670Y-96280424D01*
X152910670Y-96280425D01*
X152907391Y-96281954D01*
X152712361Y-96372898D01*
X152712357Y-96372900D01*
X152533121Y-96498402D01*
X152378402Y-96653121D01*
X152276074Y-96799262D01*
X152221497Y-96842887D01*
X152151999Y-96850081D01*
X152089644Y-96818558D01*
X152054230Y-96758328D01*
X152050499Y-96728139D01*
X152050499Y-96578482D01*
X152050498Y-96578475D01*
X152035646Y-96484696D01*
X151978050Y-96371658D01*
X151978046Y-96371654D01*
X151978045Y-96371652D01*
X151888347Y-96281954D01*
X151888344Y-96281952D01*
X151888342Y-96281950D01*
X151811517Y-96242805D01*
X151775301Y-96224352D01*
X151681524Y-96209500D01*
X149918482Y-96209500D01*
X149837519Y-96222323D01*
X149824696Y-96224354D01*
X149711658Y-96281950D01*
X149711657Y-96281951D01*
X149711652Y-96281954D01*
X149621954Y-96371652D01*
X149621951Y-96371657D01*
X149621950Y-96371658D01*
X149602751Y-96409337D01*
X149564352Y-96484698D01*
X149549500Y-96578475D01*
X146606950Y-96578475D01*
X146526877Y-96498402D01*
X146347642Y-96372900D01*
X146347638Y-96372897D01*
X146218072Y-96312480D01*
X146149330Y-96280425D01*
X146149326Y-96280424D01*
X146149322Y-96280422D01*
X145937977Y-96223793D01*
X145720002Y-96204723D01*
X145719998Y-96204723D01*
X145574682Y-96217436D01*
X145502023Y-96223793D01*
X145502020Y-96223793D01*
X145290677Y-96280422D01*
X145290670Y-96280424D01*
X145290670Y-96280425D01*
X145287391Y-96281954D01*
X145092361Y-96372898D01*
X145092357Y-96372900D01*
X144913121Y-96498402D01*
X144758402Y-96653121D01*
X144632900Y-96832357D01*
X144632897Y-96832363D01*
X144617273Y-96865868D01*
X144571099Y-96918307D01*
X144503905Y-96937457D01*
X144437025Y-96917240D01*
X144392509Y-96865865D01*
X144353598Y-96782419D01*
X144218113Y-96588926D01*
X144218108Y-96588920D01*
X144051082Y-96421894D01*
X143857578Y-96286399D01*
X143643492Y-96186570D01*
X143643486Y-96186567D01*
X143430000Y-96129364D01*
X143430000Y-97026988D01*
X143372993Y-96994075D01*
X143245826Y-96960000D01*
X143114174Y-96960000D01*
X142987007Y-96994075D01*
X142930000Y-97026988D01*
X142930000Y-96129364D01*
X142929999Y-96129364D01*
X142716513Y-96186567D01*
X142716507Y-96186570D01*
X142502422Y-96286399D01*
X142502420Y-96286400D01*
X142308926Y-96421886D01*
X142308920Y-96421891D01*
X142141891Y-96588920D01*
X142141890Y-96588922D01*
X142011575Y-96775031D01*
X141956998Y-96818655D01*
X141887499Y-96825848D01*
X141825145Y-96794326D01*
X141808425Y-96775031D01*
X141678109Y-96588922D01*
X141678108Y-96588920D01*
X141511082Y-96421894D01*
X141317578Y-96286399D01*
X141103492Y-96186570D01*
X141103486Y-96186567D01*
X140890000Y-96129364D01*
X140890000Y-97026988D01*
X140832993Y-96994075D01*
X140705826Y-96960000D01*
X140574174Y-96960000D01*
X140447007Y-96994075D01*
X140390000Y-97026988D01*
X140390000Y-96129364D01*
X140389999Y-96129364D01*
X140176513Y-96186567D01*
X140176507Y-96186570D01*
X139962422Y-96286399D01*
X139962420Y-96286400D01*
X139768926Y-96421886D01*
X139768920Y-96421891D01*
X139601891Y-96588920D01*
X139601886Y-96588926D01*
X139466400Y-96782420D01*
X139466399Y-96782422D01*
X139427489Y-96865866D01*
X139381317Y-96918305D01*
X139314123Y-96937457D01*
X139247242Y-96917241D01*
X139202725Y-96865866D01*
X139202725Y-96865865D01*
X139187102Y-96832362D01*
X139187100Y-96832359D01*
X139187099Y-96832357D01*
X139061599Y-96653124D01*
X138986950Y-96578475D01*
X138906877Y-96498402D01*
X138727642Y-96372900D01*
X138727638Y-96372897D01*
X138598072Y-96312480D01*
X138529330Y-96280425D01*
X138529326Y-96280424D01*
X138529322Y-96280422D01*
X138317977Y-96223793D01*
X138100002Y-96204723D01*
X138099998Y-96204723D01*
X137954682Y-96217436D01*
X137882023Y-96223793D01*
X137882020Y-96223793D01*
X137670677Y-96280422D01*
X137670670Y-96280424D01*
X137670670Y-96280425D01*
X137667391Y-96281954D01*
X137472361Y-96372898D01*
X137472357Y-96372900D01*
X137293121Y-96498402D01*
X137138402Y-96653121D01*
X137012900Y-96832357D01*
X137012898Y-96832361D01*
X136942382Y-96983583D01*
X136896209Y-97036022D01*
X136829016Y-97055174D01*
X136762135Y-97034958D01*
X136717618Y-96983583D01*
X136662725Y-96865866D01*
X136647102Y-96832362D01*
X136647100Y-96832359D01*
X136647099Y-96832357D01*
X136521599Y-96653124D01*
X136446950Y-96578475D01*
X136366877Y-96498402D01*
X136187642Y-96372900D01*
X136187638Y-96372897D01*
X136058072Y-96312480D01*
X135989330Y-96280425D01*
X135989326Y-96280424D01*
X135989322Y-96280422D01*
X135777977Y-96223793D01*
X135560002Y-96204723D01*
X135559998Y-96204723D01*
X135414682Y-96217436D01*
X135342023Y-96223793D01*
X135342020Y-96223793D01*
X135130677Y-96280422D01*
X135130670Y-96280424D01*
X135130670Y-96280425D01*
X135127391Y-96281954D01*
X134932361Y-96372898D01*
X134932357Y-96372900D01*
X134753121Y-96498402D01*
X134598402Y-96653121D01*
X134472900Y-96832357D01*
X134472898Y-96832361D01*
X134402382Y-96983583D01*
X134356209Y-97036022D01*
X134289016Y-97055174D01*
X134222135Y-97034958D01*
X134177618Y-96983583D01*
X134122725Y-96865866D01*
X134107102Y-96832362D01*
X134107100Y-96832359D01*
X134107099Y-96832357D01*
X133981599Y-96653124D01*
X133906950Y-96578475D01*
X133826877Y-96498402D01*
X133647639Y-96372898D01*
X133644967Y-96371652D01*
X133617093Y-96358653D01*
X133564655Y-96312480D01*
X133545500Y-96246272D01*
X133545500Y-88950819D01*
X133545500Y-88950817D01*
X133509688Y-88817164D01*
X133440505Y-88697335D01*
X133342665Y-88599495D01*
X133342664Y-88599494D01*
X133338334Y-88595164D01*
X133338323Y-88595154D01*
X131230716Y-86487547D01*
X131197231Y-86426224D01*
X131195301Y-86414812D01*
X131185140Y-86331131D01*
X131185139Y-86331125D01*
X131124817Y-86172068D01*
X131090476Y-86122318D01*
X131028183Y-86032071D01*
X130933316Y-85948026D01*
X130900849Y-85919263D01*
X130750226Y-85840210D01*
X130585056Y-85799500D01*
X130414944Y-85799500D01*
X130249773Y-85840210D01*
X130099150Y-85919263D01*
X129971816Y-86032072D01*
X129875182Y-86172068D01*
X129814860Y-86331125D01*
X129814859Y-86331130D01*
X129794355Y-86500000D01*
X129814859Y-86668869D01*
X129814860Y-86668874D01*
X129875182Y-86827931D01*
X129937475Y-86918177D01*
X129971817Y-86967929D01*
X130077505Y-87061560D01*
X130099150Y-87080736D01*
X130249773Y-87159789D01*
X130249775Y-87159790D01*
X130414944Y-87200500D01*
X130414946Y-87200500D01*
X130420708Y-87201200D01*
X130484887Y-87228820D01*
X130493446Y-87236615D01*
X132458181Y-89201350D01*
X132491666Y-89262673D01*
X132494500Y-89289031D01*
X132494500Y-96246273D01*
X132474815Y-96313312D01*
X132422906Y-96358655D01*
X132392359Y-96372899D01*
X132213121Y-96498402D01*
X132058402Y-96653121D01*
X131932900Y-96832357D01*
X131932898Y-96832361D01*
X131862382Y-96983583D01*
X131816209Y-97036022D01*
X131749016Y-97055174D01*
X131682135Y-97034958D01*
X131637618Y-96983583D01*
X131582725Y-96865866D01*
X131567102Y-96832362D01*
X131567100Y-96832359D01*
X131567099Y-96832357D01*
X131441599Y-96653124D01*
X131366950Y-96578475D01*
X131286877Y-96498402D01*
X131107642Y-96372900D01*
X131107638Y-96372897D01*
X130978072Y-96312480D01*
X130909330Y-96280425D01*
X130909326Y-96280424D01*
X130909322Y-96280422D01*
X130697977Y-96223793D01*
X130480002Y-96204723D01*
X130479998Y-96204723D01*
X130334682Y-96217436D01*
X130262023Y-96223793D01*
X130262020Y-96223793D01*
X130050677Y-96280422D01*
X130050670Y-96280424D01*
X130050670Y-96280425D01*
X130047391Y-96281954D01*
X129852361Y-96372898D01*
X129852357Y-96372900D01*
X129673121Y-96498402D01*
X129518402Y-96653121D01*
X129416074Y-96799262D01*
X129361497Y-96842887D01*
X129291999Y-96850081D01*
X129229644Y-96818558D01*
X129194230Y-96758328D01*
X129190499Y-96728139D01*
X129190499Y-96578482D01*
X129190498Y-96578475D01*
X129175646Y-96484696D01*
X129118050Y-96371658D01*
X129118046Y-96371654D01*
X129118045Y-96371652D01*
X129028347Y-96281954D01*
X129028344Y-96281952D01*
X129028342Y-96281950D01*
X128951517Y-96242805D01*
X128915301Y-96224352D01*
X128821524Y-96209500D01*
X127058482Y-96209500D01*
X126977519Y-96222323D01*
X126964696Y-96224354D01*
X126851658Y-96281950D01*
X126851657Y-96281951D01*
X126851652Y-96281954D01*
X126761954Y-96371652D01*
X126761951Y-96371657D01*
X126761950Y-96371658D01*
X126742751Y-96409337D01*
X126704352Y-96484698D01*
X126689500Y-96578475D01*
X111575500Y-96578475D01*
X111575500Y-87984982D01*
X111564006Y-87957233D01*
X111542767Y-87935994D01*
X111515018Y-87924500D01*
X111515017Y-87924500D01*
X100199500Y-87924500D01*
X100132461Y-87904815D01*
X100086706Y-87852011D01*
X100075500Y-87800500D01*
X100075500Y-71499999D01*
X131294355Y-71499999D01*
X131314859Y-71668869D01*
X131314860Y-71668874D01*
X131375182Y-71827931D01*
X131437475Y-71918177D01*
X131471817Y-71967929D01*
X131536803Y-72025501D01*
X131599150Y-72080736D01*
X131749773Y-72159789D01*
X131749775Y-72159790D01*
X131914944Y-72200500D01*
X132085056Y-72200500D01*
X132250225Y-72159790D01*
X132400852Y-72080734D01*
X132416291Y-72067056D01*
X132428000Y-72056684D01*
X132491233Y-72026963D01*
X132510226Y-72025500D01*
X133423205Y-72025500D01*
X133423221Y-72025501D01*
X133430817Y-72025501D01*
X133569181Y-72025501D01*
X133569183Y-72025501D01*
X133639455Y-72006671D01*
X133674592Y-71997256D01*
X133674593Y-71997255D01*
X133702836Y-71989688D01*
X133822665Y-71920505D01*
X133920505Y-71822665D01*
X133920505Y-71822663D01*
X133930709Y-71812460D01*
X133930712Y-71812455D01*
X134477686Y-71265483D01*
X134539009Y-71231998D01*
X134565367Y-71229164D01*
X138930817Y-71229164D01*
X139069183Y-71229164D01*
X142833746Y-71229164D01*
X142890038Y-71242678D01*
X142906793Y-71251215D01*
X142957589Y-71299187D01*
X142974500Y-71361700D01*
X142974500Y-76013774D01*
X142954815Y-76080813D01*
X142906800Y-76124256D01*
X142894597Y-76130474D01*
X142814974Y-76188324D01*
X142735354Y-76246172D01*
X142735352Y-76246174D01*
X142735351Y-76246174D01*
X142596174Y-76385351D01*
X142596174Y-76385352D01*
X142596172Y-76385354D01*
X142565044Y-76428198D01*
X142480476Y-76544594D01*
X142391117Y-76719970D01*
X142330290Y-76907173D01*
X142299500Y-77101577D01*
X142299500Y-77548422D01*
X142330290Y-77742826D01*
X142391117Y-77930029D01*
X142477708Y-78099973D01*
X142480476Y-78105405D01*
X142596172Y-78264646D01*
X142735354Y-78403828D01*
X142825251Y-78469142D01*
X142894590Y-78519521D01*
X142894592Y-78519521D01*
X142894595Y-78519524D01*
X142906793Y-78525739D01*
X142957589Y-78573711D01*
X142974500Y-78636224D01*
X142974500Y-83188298D01*
X142954815Y-83255337D01*
X142906796Y-83298782D01*
X142844597Y-83330474D01*
X142764974Y-83388324D01*
X142685354Y-83446172D01*
X142685352Y-83446174D01*
X142685351Y-83446174D01*
X142546174Y-83585351D01*
X142546174Y-83585352D01*
X142546172Y-83585354D01*
X142515044Y-83628198D01*
X142430476Y-83744594D01*
X142341117Y-83919970D01*
X142280290Y-84107173D01*
X142249500Y-84301577D01*
X142249500Y-84748422D01*
X142280290Y-84942826D01*
X142341117Y-85130029D01*
X142427708Y-85299973D01*
X142430476Y-85305405D01*
X142546172Y-85464646D01*
X142685354Y-85603828D01*
X142844595Y-85719524D01*
X142927455Y-85761743D01*
X143019970Y-85808882D01*
X143019972Y-85808882D01*
X143019975Y-85808884D01*
X143116386Y-85840210D01*
X143207173Y-85869709D01*
X143401578Y-85900500D01*
X143401583Y-85900500D01*
X143598422Y-85900500D01*
X143792826Y-85869709D01*
X143980025Y-85808884D01*
X144155405Y-85719524D01*
X144314646Y-85603828D01*
X144453828Y-85464646D01*
X144569524Y-85305405D01*
X144639515Y-85168038D01*
X144687489Y-85117243D01*
X144755310Y-85100448D01*
X144821445Y-85122985D01*
X144860484Y-85168038D01*
X144930476Y-85305405D01*
X145046172Y-85464646D01*
X145185354Y-85603828D01*
X145344595Y-85719524D01*
X145427455Y-85761743D01*
X145519970Y-85808882D01*
X145519972Y-85808882D01*
X145519975Y-85808884D01*
X145616386Y-85840210D01*
X145707173Y-85869709D01*
X145901578Y-85900500D01*
X145901583Y-85900500D01*
X146098422Y-85900500D01*
X146292826Y-85869709D01*
X146480025Y-85808884D01*
X146655405Y-85719524D01*
X146814646Y-85603828D01*
X146953828Y-85464646D01*
X146967836Y-85445364D01*
X147023164Y-85402699D01*
X147092778Y-85396719D01*
X147154573Y-85429324D01*
X147185860Y-85479246D01*
X147215641Y-85569119D01*
X147215643Y-85569124D01*
X147307684Y-85718345D01*
X147431654Y-85842315D01*
X147580875Y-85934356D01*
X147580880Y-85934358D01*
X147747302Y-85989505D01*
X147747309Y-85989506D01*
X147850019Y-85999999D01*
X148249999Y-85999999D01*
X148250000Y-85999998D01*
X148250000Y-84929145D01*
X148316657Y-84967630D01*
X148437465Y-85000000D01*
X148562535Y-85000000D01*
X148683343Y-84967630D01*
X148750000Y-84929145D01*
X148750000Y-85999999D01*
X149149972Y-85999999D01*
X149149986Y-85999998D01*
X149252697Y-85989505D01*
X149419119Y-85934358D01*
X149419124Y-85934356D01*
X149568345Y-85842315D01*
X149692315Y-85718345D01*
X149784356Y-85569124D01*
X149784358Y-85569119D01*
X149839505Y-85402697D01*
X149839506Y-85402690D01*
X149849999Y-85299986D01*
X149850000Y-85299973D01*
X149850000Y-84775000D01*
X148904146Y-84775000D01*
X148942630Y-84708343D01*
X148975000Y-84587535D01*
X148975000Y-84462465D01*
X148942630Y-84341657D01*
X148904146Y-84275000D01*
X149849999Y-84275000D01*
X149849999Y-83750028D01*
X149849998Y-83750013D01*
X149839505Y-83647302D01*
X149784358Y-83480880D01*
X149784356Y-83480875D01*
X149692315Y-83331654D01*
X149568345Y-83207684D01*
X149419124Y-83115643D01*
X149419119Y-83115641D01*
X149252697Y-83060494D01*
X149252690Y-83060493D01*
X149149986Y-83050000D01*
X148750000Y-83050000D01*
X148750000Y-84120854D01*
X148683343Y-84082370D01*
X148562535Y-84050000D01*
X148437465Y-84050000D01*
X148316657Y-84082370D01*
X148250000Y-84120854D01*
X148250000Y-83050000D01*
X147850028Y-83050000D01*
X147850012Y-83050001D01*
X147747302Y-83060494D01*
X147580880Y-83115641D01*
X147580875Y-83115643D01*
X147431654Y-83207684D01*
X147307684Y-83331654D01*
X147215643Y-83480875D01*
X147215642Y-83480878D01*
X147185860Y-83570754D01*
X147146087Y-83628198D01*
X147081571Y-83655021D01*
X147012795Y-83642706D01*
X146967837Y-83604636D01*
X146953828Y-83585354D01*
X146814646Y-83446172D01*
X146655405Y-83330476D01*
X146593202Y-83298782D01*
X146480029Y-83241117D01*
X146292826Y-83180290D01*
X146098422Y-83149500D01*
X146098417Y-83149500D01*
X145901583Y-83149500D01*
X145901578Y-83149500D01*
X145707173Y-83180290D01*
X145519970Y-83241117D01*
X145344594Y-83330476D01*
X145253741Y-83396485D01*
X145185354Y-83446172D01*
X145185352Y-83446174D01*
X145185351Y-83446174D01*
X145046174Y-83585351D01*
X145046174Y-83585352D01*
X145046172Y-83585354D01*
X145015044Y-83628198D01*
X144930476Y-83744594D01*
X144860485Y-83881960D01*
X144812510Y-83932756D01*
X144744689Y-83949551D01*
X144678554Y-83927014D01*
X144639515Y-83881960D01*
X144572292Y-83750028D01*
X144569524Y-83744595D01*
X144453828Y-83585354D01*
X144314646Y-83446172D01*
X144155405Y-83330476D01*
X144155404Y-83330475D01*
X144155402Y-83330474D01*
X144093204Y-83298782D01*
X144042409Y-83250808D01*
X144025500Y-83188298D01*
X144025500Y-78687176D01*
X144045185Y-78620137D01*
X144093203Y-78576693D01*
X144205405Y-78519524D01*
X144364646Y-78403828D01*
X144503828Y-78264646D01*
X144619524Y-78105405D01*
X144689515Y-77968038D01*
X144737489Y-77917243D01*
X144805310Y-77900448D01*
X144871445Y-77922985D01*
X144910484Y-77968038D01*
X144980476Y-78105405D01*
X145096172Y-78264646D01*
X145235354Y-78403828D01*
X145394595Y-78519524D01*
X145474499Y-78560237D01*
X145569970Y-78608882D01*
X145569972Y-78608882D01*
X145569975Y-78608884D01*
X145670317Y-78641487D01*
X145757173Y-78669709D01*
X145951578Y-78700500D01*
X145951583Y-78700500D01*
X146148422Y-78700500D01*
X146342826Y-78669709D01*
X146530025Y-78608884D01*
X146705405Y-78519524D01*
X146864646Y-78403828D01*
X147003828Y-78264646D01*
X147017836Y-78245364D01*
X147073164Y-78202699D01*
X147142778Y-78196719D01*
X147204573Y-78229324D01*
X147235860Y-78279246D01*
X147265641Y-78369119D01*
X147265643Y-78369124D01*
X147357684Y-78518345D01*
X147481654Y-78642315D01*
X147630875Y-78734356D01*
X147630880Y-78734358D01*
X147797302Y-78789505D01*
X147797309Y-78789506D01*
X147900019Y-78799999D01*
X148299999Y-78799999D01*
X148300000Y-78799998D01*
X148300000Y-77729145D01*
X148366657Y-77767630D01*
X148487465Y-77800000D01*
X148612535Y-77800000D01*
X148733343Y-77767630D01*
X148800000Y-77729145D01*
X148800000Y-78799999D01*
X149199972Y-78799999D01*
X149199986Y-78799998D01*
X149302697Y-78789505D01*
X149469119Y-78734358D01*
X149469124Y-78734356D01*
X149618345Y-78642315D01*
X149742315Y-78518345D01*
X149834356Y-78369124D01*
X149834358Y-78369119D01*
X149889505Y-78202697D01*
X149889506Y-78202690D01*
X149899999Y-78099986D01*
X149900000Y-78099973D01*
X149900000Y-77575000D01*
X148954146Y-77575000D01*
X148992630Y-77508343D01*
X149025000Y-77387535D01*
X149025000Y-77262465D01*
X148992630Y-77141657D01*
X148954146Y-77075000D01*
X149899999Y-77075000D01*
X149899999Y-76550028D01*
X149899998Y-76550013D01*
X149889505Y-76447302D01*
X149834358Y-76280880D01*
X149834356Y-76280875D01*
X149742315Y-76131654D01*
X149618345Y-76007684D01*
X149469124Y-75915643D01*
X149469119Y-75915641D01*
X149302697Y-75860494D01*
X149302690Y-75860493D01*
X149199986Y-75850000D01*
X148800000Y-75850000D01*
X148800000Y-76920854D01*
X148733343Y-76882370D01*
X148612535Y-76850000D01*
X148487465Y-76850000D01*
X148366657Y-76882370D01*
X148300000Y-76920854D01*
X148300000Y-75850000D01*
X147900028Y-75850000D01*
X147900012Y-75850001D01*
X147797302Y-75860494D01*
X147630880Y-75915641D01*
X147630875Y-75915643D01*
X147481654Y-76007684D01*
X147357684Y-76131654D01*
X147265643Y-76280875D01*
X147265642Y-76280878D01*
X147235860Y-76370754D01*
X147196087Y-76428198D01*
X147131571Y-76455021D01*
X147062795Y-76442706D01*
X147017837Y-76404636D01*
X147003828Y-76385354D01*
X146864646Y-76246172D01*
X146705405Y-76130476D01*
X146705401Y-76130474D01*
X146530029Y-76041117D01*
X146342826Y-75980290D01*
X146148422Y-75949500D01*
X146148417Y-75949500D01*
X145951583Y-75949500D01*
X145951578Y-75949500D01*
X145757173Y-75980290D01*
X145569970Y-76041117D01*
X145394594Y-76130476D01*
X145303741Y-76196485D01*
X145235354Y-76246172D01*
X145235352Y-76246174D01*
X145235351Y-76246174D01*
X145096174Y-76385351D01*
X145096174Y-76385352D01*
X145096172Y-76385354D01*
X145065044Y-76428198D01*
X144980476Y-76544594D01*
X144910485Y-76681960D01*
X144862510Y-76732756D01*
X144794689Y-76749551D01*
X144728554Y-76727014D01*
X144689515Y-76681960D01*
X144622292Y-76550028D01*
X144619524Y-76544595D01*
X144503828Y-76385354D01*
X144364646Y-76246172D01*
X144205405Y-76130476D01*
X144205401Y-76130474D01*
X144093205Y-76073307D01*
X144042409Y-76025332D01*
X144025500Y-75962822D01*
X144025500Y-71361700D01*
X144045185Y-71294661D01*
X144093204Y-71251216D01*
X144155405Y-71219524D01*
X144314646Y-71103828D01*
X144453828Y-70964646D01*
X144569524Y-70805405D01*
X144639515Y-70668038D01*
X144687489Y-70617243D01*
X144755310Y-70600448D01*
X144821445Y-70622985D01*
X144860484Y-70668038D01*
X144930476Y-70805405D01*
X145046172Y-70964646D01*
X145185354Y-71103828D01*
X145344595Y-71219524D01*
X145427455Y-71261743D01*
X145519970Y-71308882D01*
X145519972Y-71308882D01*
X145519975Y-71308884D01*
X145588435Y-71331128D01*
X145707173Y-71369709D01*
X145901578Y-71400500D01*
X145901583Y-71400500D01*
X146098422Y-71400500D01*
X146292826Y-71369709D01*
X146317475Y-71361700D01*
X146480025Y-71308884D01*
X146655405Y-71219524D01*
X146814646Y-71103828D01*
X146953828Y-70964646D01*
X146967836Y-70945364D01*
X147023164Y-70902699D01*
X147092778Y-70896719D01*
X147154573Y-70929324D01*
X147185860Y-70979246D01*
X147215641Y-71069119D01*
X147215643Y-71069124D01*
X147307684Y-71218345D01*
X147431654Y-71342315D01*
X147580875Y-71434356D01*
X147580880Y-71434358D01*
X147747302Y-71489505D01*
X147747309Y-71489506D01*
X147850019Y-71499999D01*
X148249999Y-71499999D01*
X148250000Y-71499998D01*
X148250000Y-70429145D01*
X148316657Y-70467630D01*
X148437465Y-70500000D01*
X148562535Y-70500000D01*
X148683343Y-70467630D01*
X148750000Y-70429145D01*
X148750000Y-71499999D01*
X149149972Y-71499999D01*
X149149986Y-71499998D01*
X149252697Y-71489505D01*
X149419119Y-71434358D01*
X149419124Y-71434356D01*
X149568345Y-71342315D01*
X149692315Y-71218345D01*
X149784356Y-71069124D01*
X149784358Y-71069119D01*
X149839505Y-70902697D01*
X149839506Y-70902690D01*
X149849999Y-70799986D01*
X149850000Y-70799973D01*
X149850000Y-70275000D01*
X148904146Y-70275000D01*
X148942630Y-70208343D01*
X148975000Y-70087535D01*
X148975000Y-69962465D01*
X148942630Y-69841657D01*
X148904146Y-69775000D01*
X149849999Y-69775000D01*
X149849999Y-69250028D01*
X149849998Y-69250013D01*
X149839505Y-69147302D01*
X149784358Y-68980880D01*
X149784356Y-68980875D01*
X149692315Y-68831654D01*
X149568345Y-68707684D01*
X149419124Y-68615643D01*
X149419119Y-68615641D01*
X149252697Y-68560494D01*
X149252690Y-68560493D01*
X149149986Y-68550000D01*
X148750000Y-68550000D01*
X148750000Y-69620854D01*
X148683343Y-69582370D01*
X148562535Y-69550000D01*
X148437465Y-69550000D01*
X148316657Y-69582370D01*
X148250000Y-69620854D01*
X148250000Y-68550000D01*
X147850028Y-68550000D01*
X147850012Y-68550001D01*
X147747302Y-68560494D01*
X147580880Y-68615641D01*
X147580875Y-68615643D01*
X147431654Y-68707684D01*
X147307684Y-68831654D01*
X147215643Y-68980875D01*
X147215642Y-68980878D01*
X147185860Y-69070754D01*
X147146087Y-69128198D01*
X147081571Y-69155021D01*
X147012795Y-69142706D01*
X146967837Y-69104636D01*
X146953828Y-69085354D01*
X146814646Y-68946172D01*
X146655405Y-68830476D01*
X146480029Y-68741117D01*
X146292826Y-68680290D01*
X146098422Y-68649500D01*
X146098417Y-68649500D01*
X145901583Y-68649500D01*
X145901578Y-68649500D01*
X145707173Y-68680290D01*
X145519970Y-68741117D01*
X145344594Y-68830476D01*
X145253741Y-68896485D01*
X145185354Y-68946172D01*
X145185352Y-68946174D01*
X145185351Y-68946174D01*
X145046174Y-69085351D01*
X145046174Y-69085352D01*
X145046172Y-69085354D01*
X145015044Y-69128198D01*
X144930476Y-69244594D01*
X144860485Y-69381960D01*
X144812510Y-69432756D01*
X144744689Y-69449551D01*
X144678554Y-69427014D01*
X144639515Y-69381960D01*
X144572292Y-69250028D01*
X144569524Y-69244595D01*
X144453828Y-69085354D01*
X144314646Y-68946172D01*
X144155405Y-68830476D01*
X143980029Y-68741117D01*
X143792826Y-68680290D01*
X143598422Y-68649500D01*
X143598417Y-68649500D01*
X143401583Y-68649500D01*
X143401578Y-68649500D01*
X143207173Y-68680290D01*
X143019970Y-68741117D01*
X142844594Y-68830476D01*
X142753741Y-68896485D01*
X142685354Y-68946172D01*
X142685352Y-68946174D01*
X142685351Y-68946174D01*
X142546174Y-69085351D01*
X142546174Y-69085352D01*
X142546172Y-69085354D01*
X142515044Y-69128198D01*
X142430476Y-69244594D01*
X142341117Y-69419970D01*
X142280290Y-69607173D01*
X142249500Y-69801577D01*
X142249500Y-70054164D01*
X142229815Y-70121203D01*
X142177011Y-70166958D01*
X142125500Y-70178164D01*
X139748876Y-70178164D01*
X139681837Y-70158479D01*
X139636082Y-70105675D01*
X139626138Y-70036517D01*
X139632934Y-70010193D01*
X139685139Y-69872538D01*
X139685140Y-69872536D01*
X139705645Y-69703664D01*
X139685140Y-69534792D01*
X139624818Y-69375734D01*
X139528183Y-69235735D01*
X139423175Y-69142706D01*
X139400849Y-69122927D01*
X139250226Y-69043874D01*
X139085056Y-69003164D01*
X138914944Y-69003164D01*
X138749773Y-69043874D01*
X138599150Y-69122927D01*
X138471816Y-69235736D01*
X138375182Y-69375732D01*
X138314860Y-69534789D01*
X138314859Y-69534794D01*
X138294355Y-69703664D01*
X138314859Y-69872533D01*
X138314860Y-69872538D01*
X138367066Y-70010193D01*
X138372433Y-70079857D01*
X138339285Y-70141363D01*
X138278147Y-70175184D01*
X138251124Y-70178164D01*
X134227153Y-70178164D01*
X134093500Y-70213976D01*
X134093497Y-70213977D01*
X133973674Y-70283156D01*
X133973669Y-70283160D01*
X133875831Y-70380999D01*
X133875829Y-70381001D01*
X133588792Y-70668039D01*
X133318650Y-70938181D01*
X133257327Y-70971666D01*
X133230969Y-70974500D01*
X132510226Y-70974500D01*
X132443187Y-70954815D01*
X132428000Y-70943316D01*
X132400852Y-70919266D01*
X132400850Y-70919264D01*
X132250226Y-70840210D01*
X132085056Y-70799500D01*
X131914944Y-70799500D01*
X131749773Y-70840210D01*
X131599150Y-70919263D01*
X131471816Y-71032072D01*
X131375182Y-71172068D01*
X131314860Y-71331125D01*
X131314859Y-71331130D01*
X131294355Y-71499999D01*
X100075500Y-71499999D01*
X100075500Y-67984982D01*
X162424500Y-67984982D01*
X162424500Y-75984982D01*
X162424500Y-76015018D01*
X162435994Y-76042767D01*
X162457233Y-76064006D01*
X162484982Y-76075500D01*
X162484984Y-76075500D01*
X167515016Y-76075500D01*
X167515018Y-76075500D01*
X167542767Y-76064006D01*
X167564006Y-76042767D01*
X167575500Y-76015018D01*
X167575500Y-67984982D01*
X167564006Y-67957233D01*
X167542767Y-67935994D01*
X167515018Y-67924500D01*
X162515018Y-67924500D01*
X162484982Y-67924500D01*
X162457231Y-67935995D01*
X162435995Y-67957231D01*
X162435994Y-67957232D01*
X162435994Y-67957233D01*
X162424500Y-67984982D01*
X100075500Y-67984982D01*
X100075500Y-66703664D01*
X128794355Y-66703664D01*
X128814859Y-66872533D01*
X128814860Y-66872538D01*
X128875182Y-67031595D01*
X128937475Y-67121841D01*
X128971817Y-67171593D01*
X129072001Y-67260348D01*
X129099150Y-67284400D01*
X129249773Y-67363453D01*
X129249775Y-67363454D01*
X129414944Y-67404164D01*
X129585056Y-67404164D01*
X129750225Y-67363454D01*
X129900852Y-67284398D01*
X129916291Y-67270720D01*
X129928000Y-67260348D01*
X129991233Y-67230627D01*
X130010226Y-67229164D01*
X131639774Y-67229164D01*
X131706813Y-67248849D01*
X131722000Y-67260348D01*
X131749147Y-67284397D01*
X131749149Y-67284399D01*
X131899773Y-67363453D01*
X131899775Y-67363454D01*
X132064944Y-67404164D01*
X132235056Y-67404164D01*
X132400225Y-67363454D01*
X132479692Y-67321745D01*
X132550849Y-67284400D01*
X132550850Y-67284398D01*
X132550852Y-67284398D01*
X132678183Y-67171593D01*
X132774818Y-67031594D01*
X132835140Y-66872536D01*
X132855645Y-66703664D01*
X132835140Y-66534792D01*
X132774818Y-66375734D01*
X132678183Y-66235735D01*
X132550852Y-66122930D01*
X132550849Y-66122927D01*
X132400226Y-66043874D01*
X132235056Y-66003164D01*
X132064944Y-66003164D01*
X131899773Y-66043874D01*
X131749149Y-66122928D01*
X131749147Y-66122930D01*
X131722000Y-66146980D01*
X131658767Y-66176701D01*
X131639774Y-66178164D01*
X130010226Y-66178164D01*
X129943187Y-66158479D01*
X129928000Y-66146980D01*
X129900852Y-66122930D01*
X129900850Y-66122928D01*
X129750226Y-66043874D01*
X129585056Y-66003164D01*
X129414944Y-66003164D01*
X129249773Y-66043874D01*
X129099150Y-66122927D01*
X128971816Y-66235736D01*
X128875182Y-66375732D01*
X128814860Y-66534789D01*
X128814859Y-66534794D01*
X128794355Y-66703664D01*
X100075500Y-66703664D01*
X100075500Y-60500000D01*
X128794355Y-60500000D01*
X128814859Y-60668869D01*
X128814860Y-60668874D01*
X128875182Y-60827931D01*
X128937475Y-60918177D01*
X128971817Y-60967929D01*
X129077505Y-61061560D01*
X129099150Y-61080736D01*
X129249773Y-61159789D01*
X129249775Y-61159790D01*
X129414944Y-61200500D01*
X129585056Y-61200500D01*
X129750225Y-61159790D01*
X129829692Y-61118081D01*
X129900849Y-61080736D01*
X129900850Y-61080734D01*
X129900852Y-61080734D01*
X130028183Y-60967929D01*
X130124818Y-60827930D01*
X130185140Y-60668872D01*
X130195300Y-60585187D01*
X130222921Y-60521011D01*
X130230702Y-60512466D01*
X130420505Y-60322665D01*
X130489689Y-60202835D01*
X130525501Y-60069183D01*
X130525501Y-59930817D01*
X130525501Y-59923222D01*
X130525500Y-59923204D01*
X130525500Y-59385456D01*
X130545185Y-59318417D01*
X130547450Y-59315016D01*
X130624817Y-59202931D01*
X130624816Y-59202931D01*
X130624818Y-59202930D01*
X130685140Y-59043872D01*
X130705645Y-58875000D01*
X130685140Y-58706128D01*
X130624818Y-58547070D01*
X130528183Y-58407071D01*
X130400852Y-58294266D01*
X130400849Y-58294263D01*
X130250226Y-58215210D01*
X130085056Y-58174500D01*
X129914944Y-58174500D01*
X129749773Y-58215210D01*
X129599150Y-58294263D01*
X129471816Y-58407072D01*
X129375182Y-58547068D01*
X129314860Y-58706125D01*
X129314859Y-58706130D01*
X129294355Y-58875000D01*
X129314859Y-59043869D01*
X129314860Y-59043874D01*
X129375182Y-59202931D01*
X129452550Y-59315016D01*
X129474433Y-59381370D01*
X129474500Y-59385456D01*
X129474500Y-59687672D01*
X129454815Y-59754711D01*
X129402011Y-59800466D01*
X129380175Y-59808069D01*
X129249773Y-59840210D01*
X129099150Y-59919263D01*
X128971816Y-60032072D01*
X128875182Y-60172068D01*
X128814860Y-60331125D01*
X128814859Y-60331130D01*
X128794355Y-60500000D01*
X100075500Y-60500000D01*
X100075500Y-52000000D01*
X131294355Y-52000000D01*
X131314859Y-52168869D01*
X131314860Y-52168874D01*
X131375182Y-52327931D01*
X131426317Y-52402011D01*
X131471817Y-52467929D01*
X131574538Y-52558932D01*
X131611665Y-52618121D01*
X131612087Y-52683837D01*
X131599499Y-52730820D01*
X131599499Y-52879175D01*
X131599500Y-52879188D01*
X131599500Y-54289546D01*
X131579815Y-54356585D01*
X131577550Y-54359986D01*
X131500183Y-54472071D01*
X131500182Y-54472071D01*
X131439860Y-54631128D01*
X131439859Y-54631133D01*
X131419355Y-54800003D01*
X131439859Y-54968872D01*
X131439860Y-54968877D01*
X131500182Y-55127934D01*
X131562475Y-55218180D01*
X131596817Y-55267932D01*
X131702505Y-55361563D01*
X131724150Y-55380739D01*
X131874773Y-55459792D01*
X131874775Y-55459793D01*
X132039944Y-55500503D01*
X132118079Y-55500503D01*
X132185118Y-55520188D01*
X132220128Y-55554061D01*
X132293752Y-55660723D01*
X132395007Y-55750427D01*
X132421085Y-55773530D01*
X132571708Y-55852583D01*
X132571710Y-55852584D01*
X132736879Y-55893294D01*
X132906991Y-55893294D01*
X133072160Y-55852584D01*
X133151627Y-55810875D01*
X133222784Y-55773530D01*
X133222785Y-55773528D01*
X133222787Y-55773528D01*
X133350118Y-55660723D01*
X133446753Y-55520724D01*
X133507075Y-55361666D01*
X133527580Y-55192794D01*
X133520728Y-55136367D01*
X133524051Y-55089321D01*
X133525501Y-55083912D01*
X133525501Y-54945546D01*
X133525501Y-54937951D01*
X133525500Y-54937933D01*
X133525500Y-53649500D01*
X133545185Y-53582461D01*
X133597989Y-53536706D01*
X133649500Y-53525500D01*
X159623205Y-53525500D01*
X159623221Y-53525501D01*
X159630817Y-53525501D01*
X159769181Y-53525501D01*
X159769183Y-53525501D01*
X159839455Y-53506671D01*
X159874592Y-53497256D01*
X159874593Y-53497255D01*
X159902836Y-53489688D01*
X160022665Y-53420505D01*
X160120505Y-53322665D01*
X160120505Y-53322663D01*
X160130709Y-53312460D01*
X160130713Y-53312455D01*
X163014467Y-50428700D01*
X163075788Y-50395217D01*
X163134237Y-50396607D01*
X163282023Y-50436207D01*
X163469787Y-50452633D01*
X163499998Y-50455277D01*
X163500000Y-50455277D01*
X163500002Y-50455277D01*
X163528254Y-50452805D01*
X163717977Y-50436207D01*
X163929330Y-50379575D01*
X164127639Y-50287102D01*
X164306877Y-50161598D01*
X164461598Y-50006877D01*
X164587102Y-49827639D01*
X164679575Y-49629330D01*
X164736207Y-49417977D01*
X164755277Y-49200000D01*
X164736207Y-48982023D01*
X164701548Y-48852675D01*
X164679577Y-48770677D01*
X164679576Y-48770676D01*
X164679575Y-48770670D01*
X164587102Y-48572362D01*
X164587100Y-48572359D01*
X164587099Y-48572357D01*
X164461599Y-48393124D01*
X164386950Y-48318475D01*
X164306877Y-48238402D01*
X164127639Y-48112898D01*
X164127640Y-48112898D01*
X164127638Y-48112897D01*
X164028484Y-48066661D01*
X163929330Y-48020425D01*
X163929326Y-48020424D01*
X163929322Y-48020422D01*
X163717977Y-47963793D01*
X163500002Y-47944723D01*
X163499998Y-47944723D01*
X163354682Y-47957436D01*
X163282023Y-47963793D01*
X163282020Y-47963793D01*
X163070677Y-48020422D01*
X163070670Y-48020424D01*
X163070670Y-48020425D01*
X163067391Y-48021954D01*
X162872361Y-48112898D01*
X162872357Y-48112900D01*
X162693121Y-48238402D01*
X162538402Y-48393121D01*
X162412900Y-48572357D01*
X162412898Y-48572361D01*
X162342382Y-48723583D01*
X162296209Y-48776022D01*
X162229016Y-48795174D01*
X162162135Y-48774958D01*
X162117618Y-48723583D01*
X162062725Y-48605866D01*
X162047102Y-48572362D01*
X162047100Y-48572359D01*
X162047099Y-48572357D01*
X161921599Y-48393124D01*
X161846950Y-48318475D01*
X161766877Y-48238402D01*
X161587639Y-48112898D01*
X161587640Y-48112898D01*
X161587638Y-48112897D01*
X161488484Y-48066661D01*
X161389330Y-48020425D01*
X161389326Y-48020424D01*
X161389322Y-48020422D01*
X161177977Y-47963793D01*
X160960002Y-47944723D01*
X160959998Y-47944723D01*
X160814682Y-47957436D01*
X160742023Y-47963793D01*
X160742020Y-47963793D01*
X160530677Y-48020422D01*
X160530670Y-48020424D01*
X160530670Y-48020425D01*
X160527391Y-48021954D01*
X160332361Y-48112898D01*
X160332357Y-48112900D01*
X160153121Y-48238402D01*
X159998402Y-48393121D01*
X159872900Y-48572357D01*
X159872898Y-48572361D01*
X159802382Y-48723583D01*
X159756209Y-48776022D01*
X159689016Y-48795174D01*
X159622135Y-48774958D01*
X159577618Y-48723583D01*
X159522725Y-48605866D01*
X159507102Y-48572362D01*
X159507100Y-48572359D01*
X159507099Y-48572357D01*
X159381599Y-48393124D01*
X159306950Y-48318475D01*
X159226877Y-48238402D01*
X159047639Y-48112898D01*
X159047640Y-48112898D01*
X159047638Y-48112897D01*
X158948484Y-48066661D01*
X158849330Y-48020425D01*
X158849326Y-48020424D01*
X158849322Y-48020422D01*
X158637977Y-47963793D01*
X158420002Y-47944723D01*
X158419998Y-47944723D01*
X158274682Y-47957436D01*
X158202023Y-47963793D01*
X158202020Y-47963793D01*
X157990677Y-48020422D01*
X157990670Y-48020424D01*
X157990670Y-48020425D01*
X157987391Y-48021954D01*
X157792361Y-48112898D01*
X157792357Y-48112900D01*
X157613121Y-48238402D01*
X157458402Y-48393121D01*
X157332900Y-48572357D01*
X157332898Y-48572361D01*
X157262382Y-48723583D01*
X157216209Y-48776022D01*
X157149016Y-48795174D01*
X157082135Y-48774958D01*
X157037618Y-48723583D01*
X156982725Y-48605866D01*
X156967102Y-48572362D01*
X156967100Y-48572359D01*
X156967099Y-48572357D01*
X156841599Y-48393124D01*
X156766950Y-48318475D01*
X156686877Y-48238402D01*
X156507639Y-48112898D01*
X156507640Y-48112898D01*
X156507638Y-48112897D01*
X156408484Y-48066661D01*
X156309330Y-48020425D01*
X156309326Y-48020424D01*
X156309322Y-48020422D01*
X156097977Y-47963793D01*
X155880002Y-47944723D01*
X155879998Y-47944723D01*
X155734682Y-47957436D01*
X155662023Y-47963793D01*
X155662020Y-47963793D01*
X155450677Y-48020422D01*
X155450670Y-48020424D01*
X155450670Y-48020425D01*
X155447391Y-48021954D01*
X155252361Y-48112898D01*
X155252357Y-48112900D01*
X155073121Y-48238402D01*
X154918402Y-48393121D01*
X154792900Y-48572357D01*
X154792898Y-48572361D01*
X154722382Y-48723583D01*
X154676209Y-48776022D01*
X154609016Y-48795174D01*
X154542135Y-48774958D01*
X154497618Y-48723583D01*
X154442725Y-48605866D01*
X154427102Y-48572362D01*
X154427100Y-48572359D01*
X154427099Y-48572357D01*
X154301599Y-48393124D01*
X154226950Y-48318475D01*
X154146877Y-48238402D01*
X153967639Y-48112898D01*
X153967640Y-48112898D01*
X153967638Y-48112897D01*
X153868484Y-48066661D01*
X153769330Y-48020425D01*
X153769326Y-48020424D01*
X153769322Y-48020422D01*
X153557977Y-47963793D01*
X153340002Y-47944723D01*
X153339998Y-47944723D01*
X153194682Y-47957436D01*
X153122023Y-47963793D01*
X153122020Y-47963793D01*
X152910677Y-48020422D01*
X152910670Y-48020424D01*
X152910670Y-48020425D01*
X152907391Y-48021954D01*
X152712361Y-48112898D01*
X152712357Y-48112900D01*
X152533121Y-48238402D01*
X152378402Y-48393121D01*
X152252900Y-48572357D01*
X152252898Y-48572361D01*
X152182382Y-48723583D01*
X152136209Y-48776022D01*
X152069016Y-48795174D01*
X152002135Y-48774958D01*
X151957618Y-48723583D01*
X151902725Y-48605866D01*
X151887102Y-48572362D01*
X151887100Y-48572359D01*
X151887099Y-48572357D01*
X151761599Y-48393124D01*
X151686950Y-48318475D01*
X151606877Y-48238402D01*
X151427639Y-48112898D01*
X151427640Y-48112898D01*
X151427638Y-48112897D01*
X151328484Y-48066661D01*
X151229330Y-48020425D01*
X151229326Y-48020424D01*
X151229322Y-48020422D01*
X151017977Y-47963793D01*
X150800002Y-47944723D01*
X150799998Y-47944723D01*
X150654682Y-47957436D01*
X150582023Y-47963793D01*
X150582020Y-47963793D01*
X150370677Y-48020422D01*
X150370670Y-48020424D01*
X150370670Y-48020425D01*
X150367391Y-48021954D01*
X150172361Y-48112898D01*
X150172357Y-48112900D01*
X149993121Y-48238402D01*
X149838402Y-48393121D01*
X149712900Y-48572357D01*
X149712898Y-48572361D01*
X149642382Y-48723583D01*
X149596209Y-48776022D01*
X149529016Y-48795174D01*
X149462135Y-48774958D01*
X149417618Y-48723583D01*
X149362725Y-48605866D01*
X149347102Y-48572362D01*
X149347100Y-48572359D01*
X149347099Y-48572357D01*
X149221599Y-48393124D01*
X149146950Y-48318475D01*
X149066877Y-48238402D01*
X148887639Y-48112898D01*
X148887640Y-48112898D01*
X148887638Y-48112897D01*
X148788484Y-48066661D01*
X148689330Y-48020425D01*
X148689326Y-48020424D01*
X148689322Y-48020422D01*
X148477977Y-47963793D01*
X148260002Y-47944723D01*
X148259998Y-47944723D01*
X148114682Y-47957436D01*
X148042023Y-47963793D01*
X148042020Y-47963793D01*
X147830677Y-48020422D01*
X147830670Y-48020424D01*
X147830670Y-48020425D01*
X147827391Y-48021954D01*
X147632361Y-48112898D01*
X147632357Y-48112900D01*
X147453121Y-48238402D01*
X147298402Y-48393121D01*
X147196074Y-48539262D01*
X147141497Y-48582887D01*
X147071999Y-48590081D01*
X147009644Y-48558558D01*
X146974230Y-48498328D01*
X146970499Y-48468139D01*
X146970499Y-48318482D01*
X146970498Y-48318475D01*
X146955646Y-48224696D01*
X146898050Y-48111658D01*
X146898046Y-48111654D01*
X146898045Y-48111652D01*
X146808347Y-48021954D01*
X146808344Y-48021952D01*
X146808342Y-48021950D01*
X146731517Y-47982805D01*
X146695301Y-47964352D01*
X146601524Y-47949500D01*
X144838482Y-47949500D01*
X144757519Y-47962323D01*
X144744696Y-47964354D01*
X144631658Y-48021950D01*
X144631657Y-48021951D01*
X144631652Y-48021954D01*
X144541954Y-48111652D01*
X144541951Y-48111657D01*
X144541950Y-48111658D01*
X144522751Y-48149337D01*
X144484352Y-48224698D01*
X144469500Y-48318475D01*
X144469500Y-50081517D01*
X144480292Y-50149657D01*
X144484354Y-50175304D01*
X144541950Y-50288342D01*
X144541952Y-50288344D01*
X144541954Y-50288347D01*
X144631652Y-50378045D01*
X144631654Y-50378046D01*
X144631658Y-50378050D01*
X144731068Y-50428702D01*
X144744698Y-50435647D01*
X144838475Y-50450499D01*
X144838481Y-50450500D01*
X146601518Y-50450499D01*
X146695304Y-50435646D01*
X146808342Y-50378050D01*
X146898050Y-50288342D01*
X146955646Y-50175304D01*
X146955646Y-50175302D01*
X146955647Y-50175301D01*
X146970499Y-50081524D01*
X146970500Y-50081519D01*
X146970499Y-49931859D01*
X146990183Y-49864823D01*
X147042987Y-49819068D01*
X147112145Y-49809124D01*
X147175701Y-49838149D01*
X147196073Y-49860738D01*
X147298402Y-50006877D01*
X147453123Y-50161598D01*
X147632361Y-50287102D01*
X147830670Y-50379575D01*
X148042023Y-50436207D01*
X148224926Y-50452208D01*
X148259998Y-50455277D01*
X148260000Y-50455277D01*
X148260002Y-50455277D01*
X148288254Y-50452805D01*
X148477977Y-50436207D01*
X148689330Y-50379575D01*
X148887639Y-50287102D01*
X149066877Y-50161598D01*
X149221598Y-50006877D01*
X149347102Y-49827639D01*
X149417618Y-49676414D01*
X149463790Y-49623977D01*
X149530984Y-49604825D01*
X149597865Y-49625041D01*
X149642381Y-49676414D01*
X149712898Y-49827639D01*
X149838402Y-50006877D01*
X149993123Y-50161598D01*
X150172361Y-50287102D01*
X150370670Y-50379575D01*
X150582023Y-50436207D01*
X150764926Y-50452208D01*
X150799998Y-50455277D01*
X150800000Y-50455277D01*
X150800002Y-50455277D01*
X150828254Y-50452805D01*
X151017977Y-50436207D01*
X151229330Y-50379575D01*
X151427639Y-50287102D01*
X151606877Y-50161598D01*
X151761598Y-50006877D01*
X151887102Y-49827639D01*
X151957618Y-49676414D01*
X152003790Y-49623977D01*
X152070984Y-49604825D01*
X152137865Y-49625041D01*
X152182381Y-49676414D01*
X152252898Y-49827639D01*
X152378402Y-50006877D01*
X152533123Y-50161598D01*
X152712361Y-50287102D01*
X152910670Y-50379575D01*
X153122023Y-50436207D01*
X153304926Y-50452208D01*
X153339998Y-50455277D01*
X153340000Y-50455277D01*
X153340002Y-50455277D01*
X153368254Y-50452805D01*
X153557977Y-50436207D01*
X153769330Y-50379575D01*
X153967639Y-50287102D01*
X154146877Y-50161598D01*
X154301598Y-50006877D01*
X154427102Y-49827639D01*
X154497618Y-49676414D01*
X154543790Y-49623977D01*
X154610984Y-49604825D01*
X154677865Y-49625041D01*
X154722381Y-49676414D01*
X154792898Y-49827639D01*
X154918402Y-50006877D01*
X155073123Y-50161598D01*
X155252361Y-50287102D01*
X155450670Y-50379575D01*
X155662023Y-50436207D01*
X155844926Y-50452208D01*
X155879998Y-50455277D01*
X155880000Y-50455277D01*
X155880002Y-50455277D01*
X155908254Y-50452805D01*
X156097977Y-50436207D01*
X156119033Y-50430565D01*
X156188880Y-50432224D01*
X156246745Y-50471385D01*
X156274251Y-50535612D01*
X156262668Y-50604515D01*
X156238811Y-50638019D01*
X156112234Y-50764596D01*
X155938648Y-50938182D01*
X155877327Y-50971666D01*
X155850969Y-50974500D01*
X132576795Y-50974500D01*
X132576779Y-50974499D01*
X132569183Y-50974499D01*
X132430817Y-50974499D01*
X132312952Y-51006080D01*
X132297161Y-51010312D01*
X132177338Y-51079492D01*
X132177332Y-51079497D01*
X131993445Y-51263384D01*
X131932122Y-51296869D01*
X131920718Y-51298798D01*
X131914949Y-51299498D01*
X131749773Y-51340210D01*
X131599150Y-51419263D01*
X131471816Y-51532072D01*
X131375182Y-51672068D01*
X131314860Y-51831125D01*
X131314859Y-51831130D01*
X131294355Y-52000000D01*
X100075500Y-52000000D01*
X100075500Y-48318475D01*
X117545500Y-48318475D01*
X117545500Y-50081517D01*
X117556292Y-50149657D01*
X117560354Y-50175304D01*
X117617950Y-50288342D01*
X117617952Y-50288344D01*
X117617954Y-50288347D01*
X117707652Y-50378045D01*
X117707654Y-50378046D01*
X117707658Y-50378050D01*
X117807068Y-50428702D01*
X117820698Y-50435647D01*
X117914475Y-50450499D01*
X117914481Y-50450500D01*
X119677518Y-50450499D01*
X119771304Y-50435646D01*
X119884342Y-50378050D01*
X119974050Y-50288342D01*
X120031646Y-50175304D01*
X120031646Y-50175302D01*
X120031647Y-50175301D01*
X120046499Y-50081524D01*
X120046500Y-50081519D01*
X120046499Y-49931859D01*
X120066183Y-49864823D01*
X120118987Y-49819068D01*
X120188145Y-49809124D01*
X120251701Y-49838149D01*
X120272073Y-49860738D01*
X120374402Y-50006877D01*
X120529123Y-50161598D01*
X120708361Y-50287102D01*
X120906670Y-50379575D01*
X121118023Y-50436207D01*
X121300926Y-50452208D01*
X121335998Y-50455277D01*
X121336000Y-50455277D01*
X121336002Y-50455277D01*
X121364254Y-50452805D01*
X121553977Y-50436207D01*
X121765330Y-50379575D01*
X121963639Y-50287102D01*
X122142877Y-50161598D01*
X122297598Y-50006877D01*
X122423102Y-49827639D01*
X122493618Y-49676414D01*
X122539790Y-49623977D01*
X122606984Y-49604825D01*
X122673865Y-49625041D01*
X122718381Y-49676414D01*
X122788898Y-49827639D01*
X122914402Y-50006877D01*
X123069123Y-50161598D01*
X123248361Y-50287102D01*
X123446670Y-50379575D01*
X123658023Y-50436207D01*
X123840926Y-50452208D01*
X123875998Y-50455277D01*
X123876000Y-50455277D01*
X123876002Y-50455277D01*
X123904254Y-50452805D01*
X124093977Y-50436207D01*
X124305330Y-50379575D01*
X124503639Y-50287102D01*
X124682877Y-50161598D01*
X124837598Y-50006877D01*
X124963102Y-49827639D01*
X124978726Y-49794132D01*
X125024896Y-49741695D01*
X125092090Y-49722543D01*
X125158971Y-49742758D01*
X125203489Y-49794134D01*
X125242399Y-49877578D01*
X125377894Y-50071082D01*
X125544917Y-50238105D01*
X125738421Y-50373600D01*
X125952507Y-50473429D01*
X125952516Y-50473433D01*
X126166000Y-50530634D01*
X126166000Y-49633012D01*
X126223007Y-49665925D01*
X126350174Y-49700000D01*
X126481826Y-49700000D01*
X126608993Y-49665925D01*
X126666000Y-49633012D01*
X126666000Y-50530634D01*
X126879483Y-50473433D01*
X126879492Y-50473429D01*
X127093578Y-50373600D01*
X127287082Y-50238105D01*
X127454105Y-50071082D01*
X127589598Y-49877580D01*
X127628509Y-49794135D01*
X127674681Y-49741695D01*
X127741875Y-49722543D01*
X127808756Y-49742758D01*
X127853273Y-49794133D01*
X127860264Y-49809124D01*
X127868898Y-49827639D01*
X127994402Y-50006877D01*
X128149123Y-50161598D01*
X128328361Y-50287102D01*
X128526670Y-50379575D01*
X128738023Y-50436207D01*
X128920926Y-50452208D01*
X128955998Y-50455277D01*
X128956000Y-50455277D01*
X128956002Y-50455277D01*
X128984254Y-50452805D01*
X129173977Y-50436207D01*
X129385330Y-50379575D01*
X129583639Y-50287102D01*
X129762877Y-50161598D01*
X129917598Y-50006877D01*
X130043102Y-49827639D01*
X130113618Y-49676414D01*
X130159790Y-49623977D01*
X130226984Y-49604825D01*
X130293865Y-49625041D01*
X130338381Y-49676414D01*
X130408898Y-49827639D01*
X130534402Y-50006877D01*
X130689123Y-50161598D01*
X130868361Y-50287102D01*
X131066670Y-50379575D01*
X131278023Y-50436207D01*
X131460926Y-50452208D01*
X131495998Y-50455277D01*
X131496000Y-50455277D01*
X131496002Y-50455277D01*
X131524254Y-50452805D01*
X131713977Y-50436207D01*
X131925330Y-50379575D01*
X132123639Y-50287102D01*
X132302877Y-50161598D01*
X132457598Y-50006877D01*
X132583102Y-49827639D01*
X132653618Y-49676414D01*
X132699790Y-49623977D01*
X132766984Y-49604825D01*
X132833865Y-49625041D01*
X132878381Y-49676414D01*
X132948898Y-49827639D01*
X133074402Y-50006877D01*
X133229123Y-50161598D01*
X133408361Y-50287102D01*
X133606670Y-50379575D01*
X133818023Y-50436207D01*
X134000926Y-50452208D01*
X134035998Y-50455277D01*
X134036000Y-50455277D01*
X134036002Y-50455277D01*
X134064254Y-50452805D01*
X134253977Y-50436207D01*
X134465330Y-50379575D01*
X134663639Y-50287102D01*
X134842877Y-50161598D01*
X134997598Y-50006877D01*
X135123102Y-49827639D01*
X135193618Y-49676414D01*
X135239790Y-49623977D01*
X135306984Y-49604825D01*
X135373865Y-49625041D01*
X135418381Y-49676414D01*
X135488898Y-49827639D01*
X135614402Y-50006877D01*
X135769123Y-50161598D01*
X135948361Y-50287102D01*
X136146670Y-50379575D01*
X136358023Y-50436207D01*
X136540926Y-50452208D01*
X136575998Y-50455277D01*
X136576000Y-50455277D01*
X136576002Y-50455277D01*
X136604254Y-50452805D01*
X136793977Y-50436207D01*
X137005330Y-50379575D01*
X137203639Y-50287102D01*
X137382877Y-50161598D01*
X137537598Y-50006877D01*
X137663102Y-49827639D01*
X137733618Y-49676414D01*
X137779790Y-49623977D01*
X137846984Y-49604825D01*
X137913865Y-49625041D01*
X137958381Y-49676414D01*
X138028898Y-49827639D01*
X138154402Y-50006877D01*
X138309123Y-50161598D01*
X138488361Y-50287102D01*
X138686670Y-50379575D01*
X138898023Y-50436207D01*
X139080926Y-50452208D01*
X139115998Y-50455277D01*
X139116000Y-50455277D01*
X139116002Y-50455277D01*
X139144254Y-50452805D01*
X139333977Y-50436207D01*
X139545330Y-50379575D01*
X139743639Y-50287102D01*
X139922877Y-50161598D01*
X140077598Y-50006877D01*
X140203102Y-49827639D01*
X140273618Y-49676414D01*
X140319790Y-49623977D01*
X140386984Y-49604825D01*
X140453865Y-49625041D01*
X140498381Y-49676414D01*
X140568898Y-49827639D01*
X140694402Y-50006877D01*
X140849123Y-50161598D01*
X141028361Y-50287102D01*
X141226670Y-50379575D01*
X141438023Y-50436207D01*
X141620926Y-50452208D01*
X141655998Y-50455277D01*
X141656000Y-50455277D01*
X141656002Y-50455277D01*
X141684254Y-50452805D01*
X141873977Y-50436207D01*
X142085330Y-50379575D01*
X142283639Y-50287102D01*
X142462877Y-50161598D01*
X142617598Y-50006877D01*
X142743102Y-49827639D01*
X142835575Y-49629330D01*
X142892207Y-49417977D01*
X142911277Y-49200000D01*
X142892207Y-48982023D01*
X142857548Y-48852675D01*
X142835577Y-48770677D01*
X142835576Y-48770676D01*
X142835575Y-48770670D01*
X142743102Y-48572362D01*
X142743100Y-48572359D01*
X142743099Y-48572357D01*
X142617599Y-48393124D01*
X142542950Y-48318475D01*
X142462877Y-48238402D01*
X142283639Y-48112898D01*
X142283640Y-48112898D01*
X142283638Y-48112897D01*
X142184484Y-48066661D01*
X142085330Y-48020425D01*
X142085326Y-48020424D01*
X142085322Y-48020422D01*
X141873977Y-47963793D01*
X141656002Y-47944723D01*
X141655998Y-47944723D01*
X141510682Y-47957436D01*
X141438023Y-47963793D01*
X141438020Y-47963793D01*
X141226677Y-48020422D01*
X141226670Y-48020424D01*
X141226670Y-48020425D01*
X141223391Y-48021954D01*
X141028361Y-48112898D01*
X141028357Y-48112900D01*
X140849121Y-48238402D01*
X140694402Y-48393121D01*
X140568900Y-48572357D01*
X140568898Y-48572361D01*
X140498382Y-48723583D01*
X140452209Y-48776022D01*
X140385016Y-48795174D01*
X140318135Y-48774958D01*
X140273618Y-48723583D01*
X140218725Y-48605866D01*
X140203102Y-48572362D01*
X140203100Y-48572359D01*
X140203099Y-48572357D01*
X140077599Y-48393124D01*
X140002950Y-48318475D01*
X139922877Y-48238402D01*
X139743639Y-48112898D01*
X139743640Y-48112898D01*
X139743638Y-48112897D01*
X139644484Y-48066661D01*
X139545330Y-48020425D01*
X139545326Y-48020424D01*
X139545322Y-48020422D01*
X139333977Y-47963793D01*
X139116002Y-47944723D01*
X139115998Y-47944723D01*
X138970682Y-47957436D01*
X138898023Y-47963793D01*
X138898020Y-47963793D01*
X138686677Y-48020422D01*
X138686670Y-48020424D01*
X138686670Y-48020425D01*
X138683391Y-48021954D01*
X138488361Y-48112898D01*
X138488357Y-48112900D01*
X138309121Y-48238402D01*
X138154402Y-48393121D01*
X138028900Y-48572357D01*
X138028898Y-48572361D01*
X137958382Y-48723583D01*
X137912209Y-48776022D01*
X137845016Y-48795174D01*
X137778135Y-48774958D01*
X137733618Y-48723583D01*
X137678725Y-48605866D01*
X137663102Y-48572362D01*
X137663100Y-48572359D01*
X137663099Y-48572357D01*
X137537599Y-48393124D01*
X137462950Y-48318475D01*
X137382877Y-48238402D01*
X137203639Y-48112898D01*
X137203640Y-48112898D01*
X137203638Y-48112897D01*
X137104484Y-48066661D01*
X137005330Y-48020425D01*
X137005326Y-48020424D01*
X137005322Y-48020422D01*
X136793977Y-47963793D01*
X136576002Y-47944723D01*
X136575998Y-47944723D01*
X136430682Y-47957436D01*
X136358023Y-47963793D01*
X136358020Y-47963793D01*
X136146677Y-48020422D01*
X136146670Y-48020424D01*
X136146670Y-48020425D01*
X136143391Y-48021954D01*
X135948361Y-48112898D01*
X135948357Y-48112900D01*
X135769121Y-48238402D01*
X135614402Y-48393121D01*
X135488900Y-48572357D01*
X135488898Y-48572361D01*
X135418382Y-48723583D01*
X135372209Y-48776022D01*
X135305016Y-48795174D01*
X135238135Y-48774958D01*
X135193618Y-48723583D01*
X135138725Y-48605866D01*
X135123102Y-48572362D01*
X135123100Y-48572359D01*
X135123099Y-48572357D01*
X134997599Y-48393124D01*
X134922950Y-48318475D01*
X134842877Y-48238402D01*
X134663639Y-48112898D01*
X134663640Y-48112898D01*
X134663638Y-48112897D01*
X134564484Y-48066661D01*
X134465330Y-48020425D01*
X134465326Y-48020424D01*
X134465322Y-48020422D01*
X134253977Y-47963793D01*
X134036002Y-47944723D01*
X134035998Y-47944723D01*
X133890682Y-47957436D01*
X133818023Y-47963793D01*
X133818020Y-47963793D01*
X133606677Y-48020422D01*
X133606670Y-48020424D01*
X133606670Y-48020425D01*
X133603391Y-48021954D01*
X133408361Y-48112898D01*
X133408357Y-48112900D01*
X133229121Y-48238402D01*
X133074402Y-48393121D01*
X132948900Y-48572357D01*
X132948898Y-48572361D01*
X132878382Y-48723583D01*
X132832209Y-48776022D01*
X132765016Y-48795174D01*
X132698135Y-48774958D01*
X132653618Y-48723583D01*
X132598725Y-48605866D01*
X132583102Y-48572362D01*
X132583100Y-48572359D01*
X132583099Y-48572357D01*
X132457599Y-48393124D01*
X132382950Y-48318475D01*
X132302877Y-48238402D01*
X132123639Y-48112898D01*
X132123640Y-48112898D01*
X132123638Y-48112897D01*
X132024484Y-48066661D01*
X131925330Y-48020425D01*
X131925326Y-48020424D01*
X131925322Y-48020422D01*
X131713977Y-47963793D01*
X131496002Y-47944723D01*
X131495998Y-47944723D01*
X131350682Y-47957436D01*
X131278023Y-47963793D01*
X131278020Y-47963793D01*
X131066677Y-48020422D01*
X131066670Y-48020424D01*
X131066670Y-48020425D01*
X131063391Y-48021954D01*
X130868361Y-48112898D01*
X130868357Y-48112900D01*
X130689121Y-48238402D01*
X130534402Y-48393121D01*
X130408900Y-48572357D01*
X130408898Y-48572361D01*
X130338382Y-48723583D01*
X130292209Y-48776022D01*
X130225016Y-48795174D01*
X130158135Y-48774958D01*
X130113618Y-48723583D01*
X130058725Y-48605866D01*
X130043102Y-48572362D01*
X130043100Y-48572359D01*
X130043099Y-48572357D01*
X129917599Y-48393124D01*
X129842950Y-48318475D01*
X129762877Y-48238402D01*
X129583639Y-48112898D01*
X129583640Y-48112898D01*
X129583638Y-48112897D01*
X129484484Y-48066661D01*
X129385330Y-48020425D01*
X129385326Y-48020424D01*
X129385322Y-48020422D01*
X129173977Y-47963793D01*
X128956002Y-47944723D01*
X128955998Y-47944723D01*
X128810682Y-47957436D01*
X128738023Y-47963793D01*
X128738020Y-47963793D01*
X128526677Y-48020422D01*
X128526670Y-48020424D01*
X128526670Y-48020425D01*
X128523391Y-48021954D01*
X128328361Y-48112898D01*
X128328357Y-48112900D01*
X128149121Y-48238402D01*
X127994402Y-48393121D01*
X127868900Y-48572357D01*
X127868897Y-48572363D01*
X127853273Y-48605868D01*
X127807099Y-48658307D01*
X127739905Y-48677457D01*
X127673025Y-48657240D01*
X127628509Y-48605865D01*
X127589598Y-48522419D01*
X127454113Y-48328926D01*
X127454108Y-48328920D01*
X127287082Y-48161894D01*
X127093578Y-48026399D01*
X126879492Y-47926570D01*
X126879486Y-47926567D01*
X126666000Y-47869364D01*
X126666000Y-48766988D01*
X126608993Y-48734075D01*
X126481826Y-48700000D01*
X126350174Y-48700000D01*
X126223007Y-48734075D01*
X126166000Y-48766988D01*
X126166000Y-47869364D01*
X126165999Y-47869364D01*
X125952513Y-47926567D01*
X125952507Y-47926570D01*
X125738422Y-48026399D01*
X125738420Y-48026400D01*
X125544926Y-48161886D01*
X125544920Y-48161891D01*
X125377891Y-48328920D01*
X125377886Y-48328926D01*
X125242400Y-48522420D01*
X125242399Y-48522422D01*
X125203489Y-48605866D01*
X125157317Y-48658305D01*
X125090123Y-48677457D01*
X125023242Y-48657241D01*
X124978725Y-48605866D01*
X124978725Y-48605865D01*
X124963102Y-48572362D01*
X124963100Y-48572359D01*
X124963099Y-48572357D01*
X124837599Y-48393124D01*
X124762950Y-48318475D01*
X124682877Y-48238402D01*
X124503639Y-48112898D01*
X124503640Y-48112898D01*
X124503638Y-48112897D01*
X124404484Y-48066661D01*
X124305330Y-48020425D01*
X124305326Y-48020424D01*
X124305322Y-48020422D01*
X124093977Y-47963793D01*
X123876002Y-47944723D01*
X123875998Y-47944723D01*
X123730682Y-47957436D01*
X123658023Y-47963793D01*
X123658020Y-47963793D01*
X123446677Y-48020422D01*
X123446670Y-48020424D01*
X123446670Y-48020425D01*
X123443391Y-48021954D01*
X123248361Y-48112898D01*
X123248357Y-48112900D01*
X123069121Y-48238402D01*
X122914402Y-48393121D01*
X122788900Y-48572357D01*
X122788898Y-48572361D01*
X122718382Y-48723583D01*
X122672209Y-48776022D01*
X122605016Y-48795174D01*
X122538135Y-48774958D01*
X122493618Y-48723583D01*
X122438725Y-48605866D01*
X122423102Y-48572362D01*
X122423100Y-48572359D01*
X122423099Y-48572357D01*
X122297599Y-48393124D01*
X122222950Y-48318475D01*
X122142877Y-48238402D01*
X121963639Y-48112898D01*
X121963640Y-48112898D01*
X121963638Y-48112897D01*
X121864484Y-48066661D01*
X121765330Y-48020425D01*
X121765326Y-48020424D01*
X121765322Y-48020422D01*
X121553977Y-47963793D01*
X121336002Y-47944723D01*
X121335998Y-47944723D01*
X121190682Y-47957436D01*
X121118023Y-47963793D01*
X121118020Y-47963793D01*
X120906677Y-48020422D01*
X120906670Y-48020424D01*
X120906670Y-48020425D01*
X120903391Y-48021954D01*
X120708361Y-48112898D01*
X120708357Y-48112900D01*
X120529121Y-48238402D01*
X120374402Y-48393121D01*
X120272074Y-48539262D01*
X120217497Y-48582887D01*
X120147999Y-48590081D01*
X120085644Y-48558558D01*
X120050230Y-48498328D01*
X120046499Y-48468139D01*
X120046499Y-48318482D01*
X120046498Y-48318475D01*
X120031646Y-48224696D01*
X119974050Y-48111658D01*
X119974046Y-48111654D01*
X119974045Y-48111652D01*
X119884347Y-48021954D01*
X119884344Y-48021952D01*
X119884342Y-48021950D01*
X119807517Y-47982805D01*
X119771301Y-47964352D01*
X119677524Y-47949500D01*
X117914482Y-47949500D01*
X117833519Y-47962323D01*
X117820696Y-47964354D01*
X117707658Y-48021950D01*
X117707657Y-48021951D01*
X117707652Y-48021954D01*
X117617954Y-48111652D01*
X117617951Y-48111657D01*
X117617950Y-48111658D01*
X117598751Y-48149337D01*
X117560352Y-48224698D01*
X117545500Y-48318475D01*
X100075500Y-48318475D01*
X100075500Y-47428092D01*
X100076097Y-47415938D01*
X100087494Y-47300222D01*
X100092234Y-47276389D01*
X100124216Y-47170959D01*
X100133508Y-47148526D01*
X100185442Y-47051365D01*
X100198938Y-47031166D01*
X100268827Y-46946006D01*
X100286006Y-46928827D01*
X100371166Y-46858938D01*
X100391365Y-46845442D01*
X100488526Y-46793508D01*
X100510959Y-46784216D01*
X100616389Y-46752234D01*
X100640220Y-46747494D01*
X100755939Y-46736097D01*
X100768093Y-46735500D01*
X100786531Y-46735500D01*
X163417365Y-46735500D01*
X163484404Y-46755185D01*
G37*
G04 #@! TD.AperFunction*
M02*
