G04 #@! TF.GenerationSoftware,KiCad,Pcbnew,8.0.7-8.0.7-0~ubuntu24.04.1*
G04 #@! TF.CreationDate,2025-01-16T01:19:07-05:00*
G04 #@! TF.ProjectId,tophat,746f7068-6174-42e6-9b69-6361645f7063,rev?*
G04 #@! TF.SameCoordinates,Original*
G04 #@! TF.FileFunction,Paste,Top*
G04 #@! TF.FilePolarity,Positive*
%FSLAX46Y46*%
G04 Gerber Fmt 4.6, Leading zero omitted, Abs format (unit mm)*
G04 Created by KiCad (PCBNEW 8.0.7-8.0.7-0~ubuntu24.04.1) date 2025-01-16 01:19:07*
%MOMM*%
%LPD*%
G01*
G04 APERTURE LIST*
G04 Aperture macros list*
%AMRoundRect*
0 Rectangle with rounded corners*
0 $1 Rounding radius*
0 $2 $3 $4 $5 $6 $7 $8 $9 X,Y pos of 4 corners*
0 Add a 4 corners polygon primitive as box body*
4,1,4,$2,$3,$4,$5,$6,$7,$8,$9,$2,$3,0*
0 Add four circle primitives for the rounded corners*
1,1,$1+$1,$2,$3*
1,1,$1+$1,$4,$5*
1,1,$1+$1,$6,$7*
1,1,$1+$1,$8,$9*
0 Add four rect primitives between the rounded corners*
20,1,$1+$1,$2,$3,$4,$5,0*
20,1,$1+$1,$4,$5,$6,$7,0*
20,1,$1+$1,$6,$7,$8,$9,0*
20,1,$1+$1,$8,$9,$2,$3,0*%
G04 Aperture macros list end*
%ADD10RoundRect,0.100000X0.100000X-0.712500X0.100000X0.712500X-0.100000X0.712500X-0.100000X-0.712500X0*%
%ADD11RoundRect,0.100000X-0.100000X0.637500X-0.100000X-0.637500X0.100000X-0.637500X0.100000X0.637500X0*%
%ADD12R,1.200000X1.200000*%
%ADD13RoundRect,0.250000X-1.750000X-1.000000X1.750000X-1.000000X1.750000X1.000000X-1.750000X1.000000X0*%
%ADD14R,1.000000X1.250000*%
G04 APERTURE END LIST*
D10*
X130921313Y-73112500D03*
X131571313Y-73112500D03*
X132221313Y-73112500D03*
X132871313Y-73112500D03*
X132871313Y-68887500D03*
X132221313Y-68887500D03*
X131571313Y-68887500D03*
X130921313Y-68887500D03*
D11*
X133450000Y-54637500D03*
X132800000Y-54637500D03*
X132150000Y-54637500D03*
X131500000Y-54637500D03*
X130850000Y-54637500D03*
X130200000Y-54637500D03*
X129550000Y-54637500D03*
X129550000Y-60362500D03*
X130200000Y-60362500D03*
X130850000Y-60362500D03*
X131500000Y-60362500D03*
X132150000Y-60362500D03*
X132800000Y-60362500D03*
X133450000Y-60362500D03*
D12*
X139000000Y-66153664D03*
X139000000Y-68253664D03*
X122450000Y-92000000D03*
X124550000Y-92000000D03*
X128050000Y-69703664D03*
X125950000Y-69703664D03*
X146450000Y-88525000D03*
X148550000Y-88525000D03*
D13*
X155950000Y-85500000D03*
X162050000Y-85500000D03*
D12*
X136000000Y-70153664D03*
X136000000Y-72253664D03*
D14*
X129000000Y-85875000D03*
X129000000Y-78125000D03*
D12*
X124450000Y-58500000D03*
X126550000Y-58500000D03*
X146450000Y-80525000D03*
X148550000Y-80525000D03*
X146400000Y-73525000D03*
X148500000Y-73525000D03*
X125950000Y-66703664D03*
X128050000Y-66703664D03*
X125050000Y-86000000D03*
X122950000Y-86000000D03*
M02*
