G04 #@! TF.GenerationSoftware,KiCad,Pcbnew,8.0.7-8.0.7-0~ubuntu24.04.1*
G04 #@! TF.CreationDate,2025-01-16T17:51:40-05:00*
G04 #@! TF.ProjectId,tophat,746f7068-6174-42e6-9b69-6361645f7063,rev?*
G04 #@! TF.SameCoordinates,Original*
G04 #@! TF.FileFunction,Legend,Top*
G04 #@! TF.FilePolarity,Positive*
%FSLAX46Y46*%
G04 Gerber Fmt 4.6, Leading zero omitted, Abs format (unit mm)*
G04 Created by KiCad (PCBNEW 8.0.7-8.0.7-0~ubuntu24.04.1) date 2025-01-16 17:51:40*
%MOMM*%
%LPD*%
G01*
G04 APERTURE LIST*
G04 Aperture macros list*
%AMRoundRect*
0 Rectangle with rounded corners*
0 $1 Rounding radius*
0 $2 $3 $4 $5 $6 $7 $8 $9 X,Y pos of 4 corners*
0 Add a 4 corners polygon primitive as box body*
4,1,4,$2,$3,$4,$5,$6,$7,$8,$9,$2,$3,0*
0 Add four circle primitives for the rounded corners*
1,1,$1+$1,$2,$3*
1,1,$1+$1,$4,$5*
1,1,$1+$1,$6,$7*
1,1,$1+$1,$8,$9*
0 Add four rect primitives between the rounded corners*
20,1,$1+$1,$2,$3,$4,$5,0*
20,1,$1+$1,$4,$5,$6,$7,0*
20,1,$1+$1,$6,$7,$8,$9,0*
20,1,$1+$1,$8,$9,$2,$3,0*%
G04 Aperture macros list end*
%ADD10C,0.300000*%
%ADD11C,0.150000*%
%ADD12C,0.120000*%
%ADD13RoundRect,0.100000X0.100000X-0.712500X0.100000X0.712500X-0.100000X0.712500X-0.100000X-0.712500X0*%
%ADD14R,1.700000X1.700000*%
%ADD15O,1.700000X1.700000*%
%ADD16RoundRect,0.100000X-0.100000X0.637500X-0.100000X-0.637500X0.100000X-0.637500X0.100000X0.637500X0*%
%ADD17R,1.200000X1.200000*%
%ADD18RoundRect,0.250000X0.600000X0.725000X-0.600000X0.725000X-0.600000X-0.725000X0.600000X-0.725000X0*%
%ADD19O,1.700000X1.950000*%
%ADD20R,1.000000X1.000000*%
%ADD21C,3.200000*%
%ADD22RoundRect,0.250000X-1.750000X-1.000000X1.750000X-1.000000X1.750000X1.000000X-1.750000X1.000000X0*%
%ADD23R,1.000000X1.250000*%
G04 APERTURE END LIST*
D10*
X130833130Y-94945489D02*
X129233130Y-94945489D01*
X129233130Y-93945488D02*
X129233130Y-93659774D01*
X129233130Y-93659774D02*
X129309320Y-93516917D01*
X129309320Y-93516917D02*
X129461701Y-93374060D01*
X129461701Y-93374060D02*
X129766463Y-93302631D01*
X129766463Y-93302631D02*
X130299797Y-93302631D01*
X130299797Y-93302631D02*
X130604559Y-93374060D01*
X130604559Y-93374060D02*
X130756940Y-93516917D01*
X130756940Y-93516917D02*
X130833130Y-93659774D01*
X130833130Y-93659774D02*
X130833130Y-93945488D01*
X130833130Y-93945488D02*
X130756940Y-94088346D01*
X130756940Y-94088346D02*
X130604559Y-94231203D01*
X130604559Y-94231203D02*
X130299797Y-94302631D01*
X130299797Y-94302631D02*
X129766463Y-94302631D01*
X129766463Y-94302631D02*
X129461701Y-94231203D01*
X129461701Y-94231203D02*
X129309320Y-94088346D01*
X129309320Y-94088346D02*
X129233130Y-93945488D01*
X130833130Y-91802631D02*
X130071225Y-92302631D01*
X130833130Y-92659774D02*
X129233130Y-92659774D01*
X129233130Y-92659774D02*
X129233130Y-92088345D01*
X129233130Y-92088345D02*
X129309320Y-91945488D01*
X129309320Y-91945488D02*
X129385511Y-91874059D01*
X129385511Y-91874059D02*
X129537892Y-91802631D01*
X129537892Y-91802631D02*
X129766463Y-91802631D01*
X129766463Y-91802631D02*
X129918844Y-91874059D01*
X129918844Y-91874059D02*
X129995035Y-91945488D01*
X129995035Y-91945488D02*
X130071225Y-92088345D01*
X130071225Y-92088345D02*
X130071225Y-92659774D01*
X130756940Y-90588345D02*
X130833130Y-90731202D01*
X130833130Y-90731202D02*
X130833130Y-91016917D01*
X130833130Y-91016917D02*
X130756940Y-91159774D01*
X130756940Y-91159774D02*
X130604559Y-91231202D01*
X130604559Y-91231202D02*
X129995035Y-91231202D01*
X129995035Y-91231202D02*
X129842654Y-91159774D01*
X129842654Y-91159774D02*
X129766463Y-91016917D01*
X129766463Y-91016917D02*
X129766463Y-90731202D01*
X129766463Y-90731202D02*
X129842654Y-90588345D01*
X129842654Y-90588345D02*
X129995035Y-90516917D01*
X129995035Y-90516917D02*
X130147416Y-90516917D01*
X130147416Y-90516917D02*
X130299797Y-91231202D01*
X129766463Y-90088345D02*
X129766463Y-89516917D01*
X130833130Y-89874060D02*
X129461701Y-89874060D01*
X129461701Y-89874060D02*
X129309320Y-89802631D01*
X129309320Y-89802631D02*
X129233130Y-89659774D01*
X129233130Y-89659774D02*
X129233130Y-89516917D01*
X133409040Y-94088346D02*
X132647135Y-94588346D01*
X133409040Y-94945489D02*
X131809040Y-94945489D01*
X131809040Y-94945489D02*
X131809040Y-94374060D01*
X131809040Y-94374060D02*
X131885230Y-94231203D01*
X131885230Y-94231203D02*
X131961421Y-94159774D01*
X131961421Y-94159774D02*
X132113802Y-94088346D01*
X132113802Y-94088346D02*
X132342373Y-94088346D01*
X132342373Y-94088346D02*
X132494754Y-94159774D01*
X132494754Y-94159774D02*
X132570945Y-94231203D01*
X132570945Y-94231203D02*
X132647135Y-94374060D01*
X132647135Y-94374060D02*
X132647135Y-94945489D01*
X133332850Y-93516917D02*
X133409040Y-93302632D01*
X133409040Y-93302632D02*
X133409040Y-92945489D01*
X133409040Y-92945489D02*
X133332850Y-92802632D01*
X133332850Y-92802632D02*
X133256659Y-92731203D01*
X133256659Y-92731203D02*
X133104278Y-92659774D01*
X133104278Y-92659774D02*
X132951897Y-92659774D01*
X132951897Y-92659774D02*
X132799516Y-92731203D01*
X132799516Y-92731203D02*
X132723326Y-92802632D01*
X132723326Y-92802632D02*
X132647135Y-92945489D01*
X132647135Y-92945489D02*
X132570945Y-93231203D01*
X132570945Y-93231203D02*
X132494754Y-93374060D01*
X132494754Y-93374060D02*
X132418564Y-93445489D01*
X132418564Y-93445489D02*
X132266183Y-93516917D01*
X132266183Y-93516917D02*
X132113802Y-93516917D01*
X132113802Y-93516917D02*
X131961421Y-93445489D01*
X131961421Y-93445489D02*
X131885230Y-93374060D01*
X131885230Y-93374060D02*
X131809040Y-93231203D01*
X131809040Y-93231203D02*
X131809040Y-92874060D01*
X131809040Y-92874060D02*
X131885230Y-92659774D01*
X131809040Y-92231203D02*
X131809040Y-91374061D01*
X133409040Y-91802632D02*
X131809040Y-91802632D01*
X134384950Y-95088346D02*
X134384950Y-94159774D01*
X134384950Y-94159774D02*
X134994474Y-94659774D01*
X134994474Y-94659774D02*
X134994474Y-94445489D01*
X134994474Y-94445489D02*
X135070664Y-94302632D01*
X135070664Y-94302632D02*
X135146855Y-94231203D01*
X135146855Y-94231203D02*
X135299236Y-94159774D01*
X135299236Y-94159774D02*
X135680188Y-94159774D01*
X135680188Y-94159774D02*
X135832569Y-94231203D01*
X135832569Y-94231203D02*
X135908760Y-94302632D01*
X135908760Y-94302632D02*
X135984950Y-94445489D01*
X135984950Y-94445489D02*
X135984950Y-94874060D01*
X135984950Y-94874060D02*
X135908760Y-95016917D01*
X135908760Y-95016917D02*
X135832569Y-95088346D01*
X135832569Y-93516918D02*
X135908760Y-93445489D01*
X135908760Y-93445489D02*
X135984950Y-93516918D01*
X135984950Y-93516918D02*
X135908760Y-93588346D01*
X135908760Y-93588346D02*
X135832569Y-93516918D01*
X135832569Y-93516918D02*
X135984950Y-93516918D01*
X134384950Y-92945489D02*
X134384950Y-92016917D01*
X134384950Y-92016917D02*
X134994474Y-92516917D01*
X134994474Y-92516917D02*
X134994474Y-92302632D01*
X134994474Y-92302632D02*
X135070664Y-92159775D01*
X135070664Y-92159775D02*
X135146855Y-92088346D01*
X135146855Y-92088346D02*
X135299236Y-92016917D01*
X135299236Y-92016917D02*
X135680188Y-92016917D01*
X135680188Y-92016917D02*
X135832569Y-92088346D01*
X135832569Y-92088346D02*
X135908760Y-92159775D01*
X135908760Y-92159775D02*
X135984950Y-92302632D01*
X135984950Y-92302632D02*
X135984950Y-92731203D01*
X135984950Y-92731203D02*
X135908760Y-92874060D01*
X135908760Y-92874060D02*
X135832569Y-92945489D01*
X134384950Y-91588346D02*
X135984950Y-91088346D01*
X135984950Y-91088346D02*
X134384950Y-90588346D01*
X136960860Y-94231203D02*
X136960860Y-94945489D01*
X136960860Y-94945489D02*
X137722765Y-95016917D01*
X137722765Y-95016917D02*
X137646574Y-94945489D01*
X137646574Y-94945489D02*
X137570384Y-94802632D01*
X137570384Y-94802632D02*
X137570384Y-94445489D01*
X137570384Y-94445489D02*
X137646574Y-94302632D01*
X137646574Y-94302632D02*
X137722765Y-94231203D01*
X137722765Y-94231203D02*
X137875146Y-94159774D01*
X137875146Y-94159774D02*
X138256098Y-94159774D01*
X138256098Y-94159774D02*
X138408479Y-94231203D01*
X138408479Y-94231203D02*
X138484670Y-94302632D01*
X138484670Y-94302632D02*
X138560860Y-94445489D01*
X138560860Y-94445489D02*
X138560860Y-94802632D01*
X138560860Y-94802632D02*
X138484670Y-94945489D01*
X138484670Y-94945489D02*
X138408479Y-95016917D01*
X138408479Y-93516918D02*
X138484670Y-93445489D01*
X138484670Y-93445489D02*
X138560860Y-93516918D01*
X138560860Y-93516918D02*
X138484670Y-93588346D01*
X138484670Y-93588346D02*
X138408479Y-93516918D01*
X138408479Y-93516918D02*
X138560860Y-93516918D01*
X136960860Y-92088346D02*
X136960860Y-92802632D01*
X136960860Y-92802632D02*
X137722765Y-92874060D01*
X137722765Y-92874060D02*
X137646574Y-92802632D01*
X137646574Y-92802632D02*
X137570384Y-92659775D01*
X137570384Y-92659775D02*
X137570384Y-92302632D01*
X137570384Y-92302632D02*
X137646574Y-92159775D01*
X137646574Y-92159775D02*
X137722765Y-92088346D01*
X137722765Y-92088346D02*
X137875146Y-92016917D01*
X137875146Y-92016917D02*
X138256098Y-92016917D01*
X138256098Y-92016917D02*
X138408479Y-92088346D01*
X138408479Y-92088346D02*
X138484670Y-92159775D01*
X138484670Y-92159775D02*
X138560860Y-92302632D01*
X138560860Y-92302632D02*
X138560860Y-92659775D01*
X138560860Y-92659775D02*
X138484670Y-92802632D01*
X138484670Y-92802632D02*
X138408479Y-92874060D01*
X136960860Y-91588346D02*
X138560860Y-91088346D01*
X138560860Y-91088346D02*
X136960860Y-90588346D01*
X139612960Y-94159774D02*
X139536770Y-94302632D01*
X139536770Y-94302632D02*
X139536770Y-94516917D01*
X139536770Y-94516917D02*
X139612960Y-94731203D01*
X139612960Y-94731203D02*
X139765341Y-94874060D01*
X139765341Y-94874060D02*
X139917722Y-94945489D01*
X139917722Y-94945489D02*
X140222484Y-95016917D01*
X140222484Y-95016917D02*
X140451056Y-95016917D01*
X140451056Y-95016917D02*
X140755818Y-94945489D01*
X140755818Y-94945489D02*
X140908199Y-94874060D01*
X140908199Y-94874060D02*
X141060580Y-94731203D01*
X141060580Y-94731203D02*
X141136770Y-94516917D01*
X141136770Y-94516917D02*
X141136770Y-94374060D01*
X141136770Y-94374060D02*
X141060580Y-94159774D01*
X141060580Y-94159774D02*
X140984389Y-94088346D01*
X140984389Y-94088346D02*
X140451056Y-94088346D01*
X140451056Y-94088346D02*
X140451056Y-94374060D01*
X141136770Y-93445489D02*
X139536770Y-93445489D01*
X139536770Y-93445489D02*
X141136770Y-92588346D01*
X141136770Y-92588346D02*
X139536770Y-92588346D01*
X141136770Y-91874060D02*
X139536770Y-91874060D01*
X139536770Y-91874060D02*
X139536770Y-91516917D01*
X139536770Y-91516917D02*
X139612960Y-91302631D01*
X139612960Y-91302631D02*
X139765341Y-91159774D01*
X139765341Y-91159774D02*
X139917722Y-91088345D01*
X139917722Y-91088345D02*
X140222484Y-91016917D01*
X140222484Y-91016917D02*
X140451056Y-91016917D01*
X140451056Y-91016917D02*
X140755818Y-91088345D01*
X140755818Y-91088345D02*
X140908199Y-91159774D01*
X140908199Y-91159774D02*
X141060580Y-91302631D01*
X141060580Y-91302631D02*
X141136770Y-91516917D01*
X141136770Y-91516917D02*
X141136770Y-91874060D01*
X142188870Y-94159774D02*
X142112680Y-94302632D01*
X142112680Y-94302632D02*
X142112680Y-94516917D01*
X142112680Y-94516917D02*
X142188870Y-94731203D01*
X142188870Y-94731203D02*
X142341251Y-94874060D01*
X142341251Y-94874060D02*
X142493632Y-94945489D01*
X142493632Y-94945489D02*
X142798394Y-95016917D01*
X142798394Y-95016917D02*
X143026966Y-95016917D01*
X143026966Y-95016917D02*
X143331728Y-94945489D01*
X143331728Y-94945489D02*
X143484109Y-94874060D01*
X143484109Y-94874060D02*
X143636490Y-94731203D01*
X143636490Y-94731203D02*
X143712680Y-94516917D01*
X143712680Y-94516917D02*
X143712680Y-94374060D01*
X143712680Y-94374060D02*
X143636490Y-94159774D01*
X143636490Y-94159774D02*
X143560299Y-94088346D01*
X143560299Y-94088346D02*
X143026966Y-94088346D01*
X143026966Y-94088346D02*
X143026966Y-94374060D01*
X143712680Y-93445489D02*
X142112680Y-93445489D01*
X142112680Y-93445489D02*
X143712680Y-92588346D01*
X143712680Y-92588346D02*
X142112680Y-92588346D01*
X143712680Y-91874060D02*
X142112680Y-91874060D01*
X142112680Y-91874060D02*
X142112680Y-91516917D01*
X142112680Y-91516917D02*
X142188870Y-91302631D01*
X142188870Y-91302631D02*
X142341251Y-91159774D01*
X142341251Y-91159774D02*
X142493632Y-91088345D01*
X142493632Y-91088345D02*
X142798394Y-91016917D01*
X142798394Y-91016917D02*
X143026966Y-91016917D01*
X143026966Y-91016917D02*
X143331728Y-91088345D01*
X143331728Y-91088345D02*
X143484109Y-91159774D01*
X143484109Y-91159774D02*
X143636490Y-91302631D01*
X143636490Y-91302631D02*
X143712680Y-91516917D01*
X143712680Y-91516917D02*
X143712680Y-91874060D01*
X146288590Y-94159774D02*
X146288590Y-95016917D01*
X146288590Y-94588346D02*
X144688590Y-94588346D01*
X144688590Y-94588346D02*
X144917161Y-94731203D01*
X144917161Y-94731203D02*
X145069542Y-94874060D01*
X145069542Y-94874060D02*
X145145733Y-95016917D01*
X144840971Y-93588346D02*
X144764780Y-93516918D01*
X144764780Y-93516918D02*
X144688590Y-93374061D01*
X144688590Y-93374061D02*
X144688590Y-93016918D01*
X144688590Y-93016918D02*
X144764780Y-92874061D01*
X144764780Y-92874061D02*
X144840971Y-92802632D01*
X144840971Y-92802632D02*
X144993352Y-92731203D01*
X144993352Y-92731203D02*
X145145733Y-92731203D01*
X145145733Y-92731203D02*
X145374304Y-92802632D01*
X145374304Y-92802632D02*
X146288590Y-93659775D01*
X146288590Y-93659775D02*
X146288590Y-92731203D01*
X144688590Y-92302632D02*
X146288590Y-91802632D01*
X146288590Y-91802632D02*
X144688590Y-91302632D01*
X150951897Y-95516917D02*
X150951897Y-94802632D01*
X151409040Y-95659774D02*
X149809040Y-95159774D01*
X149809040Y-95159774D02*
X151409040Y-94659774D01*
X149809040Y-93874060D02*
X149809040Y-93731203D01*
X149809040Y-93731203D02*
X149885230Y-93588346D01*
X149885230Y-93588346D02*
X149961421Y-93516918D01*
X149961421Y-93516918D02*
X150113802Y-93445489D01*
X150113802Y-93445489D02*
X150418564Y-93374060D01*
X150418564Y-93374060D02*
X150799516Y-93374060D01*
X150799516Y-93374060D02*
X151104278Y-93445489D01*
X151104278Y-93445489D02*
X151256659Y-93516918D01*
X151256659Y-93516918D02*
X151332850Y-93588346D01*
X151332850Y-93588346D02*
X151409040Y-93731203D01*
X151409040Y-93731203D02*
X151409040Y-93874060D01*
X151409040Y-93874060D02*
X151332850Y-94016918D01*
X151332850Y-94016918D02*
X151256659Y-94088346D01*
X151256659Y-94088346D02*
X151104278Y-94159775D01*
X151104278Y-94159775D02*
X150799516Y-94231203D01*
X150799516Y-94231203D02*
X150418564Y-94231203D01*
X150418564Y-94231203D02*
X150113802Y-94159775D01*
X150113802Y-94159775D02*
X149961421Y-94088346D01*
X149961421Y-94088346D02*
X149885230Y-94016918D01*
X149885230Y-94016918D02*
X149809040Y-93874060D01*
X153527807Y-95516917D02*
X153527807Y-94802632D01*
X153984950Y-95659774D02*
X152384950Y-95159774D01*
X152384950Y-95159774D02*
X153984950Y-94659774D01*
X153984950Y-93374060D02*
X153984950Y-94231203D01*
X153984950Y-93802632D02*
X152384950Y-93802632D01*
X152384950Y-93802632D02*
X152613521Y-93945489D01*
X152613521Y-93945489D02*
X152765902Y-94088346D01*
X152765902Y-94088346D02*
X152842093Y-94231203D01*
X156103717Y-95516917D02*
X156103717Y-94802632D01*
X156560860Y-95659774D02*
X154960860Y-95159774D01*
X154960860Y-95159774D02*
X156560860Y-94659774D01*
X155113241Y-94231203D02*
X155037050Y-94159775D01*
X155037050Y-94159775D02*
X154960860Y-94016918D01*
X154960860Y-94016918D02*
X154960860Y-93659775D01*
X154960860Y-93659775D02*
X155037050Y-93516918D01*
X155037050Y-93516918D02*
X155113241Y-93445489D01*
X155113241Y-93445489D02*
X155265622Y-93374060D01*
X155265622Y-93374060D02*
X155418003Y-93374060D01*
X155418003Y-93374060D02*
X155646574Y-93445489D01*
X155646574Y-93445489D02*
X156560860Y-94302632D01*
X156560860Y-94302632D02*
X156560860Y-93374060D01*
X158679627Y-95516917D02*
X158679627Y-94802632D01*
X159136770Y-95659774D02*
X157536770Y-95159774D01*
X157536770Y-95159774D02*
X159136770Y-94659774D01*
X157536770Y-94302632D02*
X157536770Y-93374060D01*
X157536770Y-93374060D02*
X158146294Y-93874060D01*
X158146294Y-93874060D02*
X158146294Y-93659775D01*
X158146294Y-93659775D02*
X158222484Y-93516918D01*
X158222484Y-93516918D02*
X158298675Y-93445489D01*
X158298675Y-93445489D02*
X158451056Y-93374060D01*
X158451056Y-93374060D02*
X158832008Y-93374060D01*
X158832008Y-93374060D02*
X158984389Y-93445489D01*
X158984389Y-93445489D02*
X159060580Y-93516918D01*
X159060580Y-93516918D02*
X159136770Y-93659775D01*
X159136770Y-93659775D02*
X159136770Y-94088346D01*
X159136770Y-94088346D02*
X159060580Y-94231203D01*
X159060580Y-94231203D02*
X158984389Y-94302632D01*
X161255537Y-95516917D02*
X161255537Y-94802632D01*
X161712680Y-95659774D02*
X160112680Y-95159774D01*
X160112680Y-95159774D02*
X161712680Y-94659774D01*
X160646013Y-93516918D02*
X161712680Y-93516918D01*
X160036490Y-93874060D02*
X161179347Y-94231203D01*
X161179347Y-94231203D02*
X161179347Y-93302632D01*
X163831447Y-95516917D02*
X163831447Y-94802632D01*
X164288590Y-95659774D02*
X162688590Y-95159774D01*
X162688590Y-95159774D02*
X164288590Y-94659774D01*
X162688590Y-93445489D02*
X162688590Y-94159775D01*
X162688590Y-94159775D02*
X163450495Y-94231203D01*
X163450495Y-94231203D02*
X163374304Y-94159775D01*
X163374304Y-94159775D02*
X163298114Y-94016918D01*
X163298114Y-94016918D02*
X163298114Y-93659775D01*
X163298114Y-93659775D02*
X163374304Y-93516918D01*
X163374304Y-93516918D02*
X163450495Y-93445489D01*
X163450495Y-93445489D02*
X163602876Y-93374060D01*
X163602876Y-93374060D02*
X163983828Y-93374060D01*
X163983828Y-93374060D02*
X164136209Y-93445489D01*
X164136209Y-93445489D02*
X164212400Y-93516918D01*
X164212400Y-93516918D02*
X164288590Y-93659775D01*
X164288590Y-93659775D02*
X164288590Y-94016918D01*
X164288590Y-94016918D02*
X164212400Y-94159775D01*
X164212400Y-94159775D02*
X164136209Y-94231203D01*
X146257220Y-53768796D02*
X144657220Y-53768796D01*
X144657220Y-53768796D02*
X144657220Y-53411653D01*
X144657220Y-53411653D02*
X144733410Y-53197367D01*
X144733410Y-53197367D02*
X144885791Y-53054510D01*
X144885791Y-53054510D02*
X145038172Y-52983081D01*
X145038172Y-52983081D02*
X145342934Y-52911653D01*
X145342934Y-52911653D02*
X145571506Y-52911653D01*
X145571506Y-52911653D02*
X145876268Y-52983081D01*
X145876268Y-52983081D02*
X146028649Y-53054510D01*
X146028649Y-53054510D02*
X146181030Y-53197367D01*
X146181030Y-53197367D02*
X146257220Y-53411653D01*
X146257220Y-53411653D02*
X146257220Y-53768796D01*
X144657220Y-52411653D02*
X144657220Y-51411653D01*
X144657220Y-51411653D02*
X146257220Y-52054510D01*
X148833130Y-53768796D02*
X147233130Y-53768796D01*
X147233130Y-53768796D02*
X147233130Y-53411653D01*
X147233130Y-53411653D02*
X147309320Y-53197367D01*
X147309320Y-53197367D02*
X147461701Y-53054510D01*
X147461701Y-53054510D02*
X147614082Y-52983081D01*
X147614082Y-52983081D02*
X147918844Y-52911653D01*
X147918844Y-52911653D02*
X148147416Y-52911653D01*
X148147416Y-52911653D02*
X148452178Y-52983081D01*
X148452178Y-52983081D02*
X148604559Y-53054510D01*
X148604559Y-53054510D02*
X148756940Y-53197367D01*
X148756940Y-53197367D02*
X148833130Y-53411653D01*
X148833130Y-53411653D02*
X148833130Y-53768796D01*
X147233130Y-51625939D02*
X147233130Y-51911653D01*
X147233130Y-51911653D02*
X147309320Y-52054510D01*
X147309320Y-52054510D02*
X147385511Y-52125939D01*
X147385511Y-52125939D02*
X147614082Y-52268796D01*
X147614082Y-52268796D02*
X147918844Y-52340224D01*
X147918844Y-52340224D02*
X148528368Y-52340224D01*
X148528368Y-52340224D02*
X148680749Y-52268796D01*
X148680749Y-52268796D02*
X148756940Y-52197367D01*
X148756940Y-52197367D02*
X148833130Y-52054510D01*
X148833130Y-52054510D02*
X148833130Y-51768796D01*
X148833130Y-51768796D02*
X148756940Y-51625939D01*
X148756940Y-51625939D02*
X148680749Y-51554510D01*
X148680749Y-51554510D02*
X148528368Y-51483081D01*
X148528368Y-51483081D02*
X148147416Y-51483081D01*
X148147416Y-51483081D02*
X147995035Y-51554510D01*
X147995035Y-51554510D02*
X147918844Y-51625939D01*
X147918844Y-51625939D02*
X147842654Y-51768796D01*
X147842654Y-51768796D02*
X147842654Y-52054510D01*
X147842654Y-52054510D02*
X147918844Y-52197367D01*
X147918844Y-52197367D02*
X147995035Y-52268796D01*
X147995035Y-52268796D02*
X148147416Y-52340224D01*
X151409040Y-53768796D02*
X149809040Y-53768796D01*
X149809040Y-53768796D02*
X149809040Y-53411653D01*
X149809040Y-53411653D02*
X149885230Y-53197367D01*
X149885230Y-53197367D02*
X150037611Y-53054510D01*
X150037611Y-53054510D02*
X150189992Y-52983081D01*
X150189992Y-52983081D02*
X150494754Y-52911653D01*
X150494754Y-52911653D02*
X150723326Y-52911653D01*
X150723326Y-52911653D02*
X151028088Y-52983081D01*
X151028088Y-52983081D02*
X151180469Y-53054510D01*
X151180469Y-53054510D02*
X151332850Y-53197367D01*
X151332850Y-53197367D02*
X151409040Y-53411653D01*
X151409040Y-53411653D02*
X151409040Y-53768796D01*
X149809040Y-51554510D02*
X149809040Y-52268796D01*
X149809040Y-52268796D02*
X150570945Y-52340224D01*
X150570945Y-52340224D02*
X150494754Y-52268796D01*
X150494754Y-52268796D02*
X150418564Y-52125939D01*
X150418564Y-52125939D02*
X150418564Y-51768796D01*
X150418564Y-51768796D02*
X150494754Y-51625939D01*
X150494754Y-51625939D02*
X150570945Y-51554510D01*
X150570945Y-51554510D02*
X150723326Y-51483081D01*
X150723326Y-51483081D02*
X151104278Y-51483081D01*
X151104278Y-51483081D02*
X151256659Y-51554510D01*
X151256659Y-51554510D02*
X151332850Y-51625939D01*
X151332850Y-51625939D02*
X151409040Y-51768796D01*
X151409040Y-51768796D02*
X151409040Y-52125939D01*
X151409040Y-52125939D02*
X151332850Y-52268796D01*
X151332850Y-52268796D02*
X151256659Y-52340224D01*
X153984950Y-53768796D02*
X152384950Y-53768796D01*
X152384950Y-53768796D02*
X152384950Y-53411653D01*
X152384950Y-53411653D02*
X152461140Y-53197367D01*
X152461140Y-53197367D02*
X152613521Y-53054510D01*
X152613521Y-53054510D02*
X152765902Y-52983081D01*
X152765902Y-52983081D02*
X153070664Y-52911653D01*
X153070664Y-52911653D02*
X153299236Y-52911653D01*
X153299236Y-52911653D02*
X153603998Y-52983081D01*
X153603998Y-52983081D02*
X153756379Y-53054510D01*
X153756379Y-53054510D02*
X153908760Y-53197367D01*
X153908760Y-53197367D02*
X153984950Y-53411653D01*
X153984950Y-53411653D02*
X153984950Y-53768796D01*
X152918283Y-51625939D02*
X153984950Y-51625939D01*
X152308760Y-51983081D02*
X153451617Y-52340224D01*
X153451617Y-52340224D02*
X153451617Y-51411653D01*
X156560860Y-53768796D02*
X154960860Y-53768796D01*
X154960860Y-53768796D02*
X154960860Y-53411653D01*
X154960860Y-53411653D02*
X155037050Y-53197367D01*
X155037050Y-53197367D02*
X155189431Y-53054510D01*
X155189431Y-53054510D02*
X155341812Y-52983081D01*
X155341812Y-52983081D02*
X155646574Y-52911653D01*
X155646574Y-52911653D02*
X155875146Y-52911653D01*
X155875146Y-52911653D02*
X156179908Y-52983081D01*
X156179908Y-52983081D02*
X156332289Y-53054510D01*
X156332289Y-53054510D02*
X156484670Y-53197367D01*
X156484670Y-53197367D02*
X156560860Y-53411653D01*
X156560860Y-53411653D02*
X156560860Y-53768796D01*
X154960860Y-52411653D02*
X154960860Y-51483081D01*
X154960860Y-51483081D02*
X155570384Y-51983081D01*
X155570384Y-51983081D02*
X155570384Y-51768796D01*
X155570384Y-51768796D02*
X155646574Y-51625939D01*
X155646574Y-51625939D02*
X155722765Y-51554510D01*
X155722765Y-51554510D02*
X155875146Y-51483081D01*
X155875146Y-51483081D02*
X156256098Y-51483081D01*
X156256098Y-51483081D02*
X156408479Y-51554510D01*
X156408479Y-51554510D02*
X156484670Y-51625939D01*
X156484670Y-51625939D02*
X156560860Y-51768796D01*
X156560860Y-51768796D02*
X156560860Y-52197367D01*
X156560860Y-52197367D02*
X156484670Y-52340224D01*
X156484670Y-52340224D02*
X156408479Y-52411653D01*
X157536770Y-62268795D02*
X157536770Y-61411653D01*
X159136770Y-61840224D02*
X157536770Y-61840224D01*
X157536770Y-61054510D02*
X159136770Y-60054510D01*
X157536770Y-60054510D02*
X159136770Y-61054510D01*
X158298675Y-58340225D02*
X158298675Y-57840225D01*
X159136770Y-57625939D02*
X159136770Y-58340225D01*
X159136770Y-58340225D02*
X157536770Y-58340225D01*
X157536770Y-58340225D02*
X157536770Y-57625939D01*
X158070103Y-56983082D02*
X159136770Y-56983082D01*
X158222484Y-56983082D02*
X158146294Y-56911653D01*
X158146294Y-56911653D02*
X158070103Y-56768796D01*
X158070103Y-56768796D02*
X158070103Y-56554510D01*
X158070103Y-56554510D02*
X158146294Y-56411653D01*
X158146294Y-56411653D02*
X158298675Y-56340225D01*
X158298675Y-56340225D02*
X159136770Y-56340225D01*
X159136770Y-54983082D02*
X158298675Y-54983082D01*
X158298675Y-54983082D02*
X158146294Y-55054510D01*
X158146294Y-55054510D02*
X158070103Y-55197367D01*
X158070103Y-55197367D02*
X158070103Y-55483082D01*
X158070103Y-55483082D02*
X158146294Y-55625939D01*
X159060580Y-54983082D02*
X159136770Y-55125939D01*
X159136770Y-55125939D02*
X159136770Y-55483082D01*
X159136770Y-55483082D02*
X159060580Y-55625939D01*
X159060580Y-55625939D02*
X158908199Y-55697367D01*
X158908199Y-55697367D02*
X158755818Y-55697367D01*
X158755818Y-55697367D02*
X158603437Y-55625939D01*
X158603437Y-55625939D02*
X158527246Y-55483082D01*
X158527246Y-55483082D02*
X158527246Y-55125939D01*
X158527246Y-55125939D02*
X158451056Y-54983082D01*
X159136770Y-54268796D02*
X157536770Y-54268796D01*
X158146294Y-54268796D02*
X158070103Y-54125939D01*
X158070103Y-54125939D02*
X158070103Y-53840224D01*
X158070103Y-53840224D02*
X158146294Y-53697367D01*
X158146294Y-53697367D02*
X158222484Y-53625939D01*
X158222484Y-53625939D02*
X158374865Y-53554510D01*
X158374865Y-53554510D02*
X158832008Y-53554510D01*
X158832008Y-53554510D02*
X158984389Y-53625939D01*
X158984389Y-53625939D02*
X159060580Y-53697367D01*
X159060580Y-53697367D02*
X159136770Y-53840224D01*
X159136770Y-53840224D02*
X159136770Y-54125939D01*
X159136770Y-54125939D02*
X159060580Y-54268796D01*
X159136770Y-52697367D02*
X159060580Y-52840224D01*
X159060580Y-52840224D02*
X158908199Y-52911653D01*
X158908199Y-52911653D02*
X157536770Y-52911653D01*
X159060580Y-51554510D02*
X159136770Y-51697367D01*
X159136770Y-51697367D02*
X159136770Y-51983082D01*
X159136770Y-51983082D02*
X159060580Y-52125939D01*
X159060580Y-52125939D02*
X158908199Y-52197367D01*
X158908199Y-52197367D02*
X158298675Y-52197367D01*
X158298675Y-52197367D02*
X158146294Y-52125939D01*
X158146294Y-52125939D02*
X158070103Y-51983082D01*
X158070103Y-51983082D02*
X158070103Y-51697367D01*
X158070103Y-51697367D02*
X158146294Y-51554510D01*
X158146294Y-51554510D02*
X158298675Y-51483082D01*
X158298675Y-51483082D02*
X158451056Y-51483082D01*
X158451056Y-51483082D02*
X158603437Y-52197367D01*
X161712680Y-52911653D02*
X160950775Y-53411653D01*
X161712680Y-53768796D02*
X160112680Y-53768796D01*
X160112680Y-53768796D02*
X160112680Y-53197367D01*
X160112680Y-53197367D02*
X160188870Y-53054510D01*
X160188870Y-53054510D02*
X160265061Y-52983081D01*
X160265061Y-52983081D02*
X160417442Y-52911653D01*
X160417442Y-52911653D02*
X160646013Y-52911653D01*
X160646013Y-52911653D02*
X160798394Y-52983081D01*
X160798394Y-52983081D02*
X160874585Y-53054510D01*
X160874585Y-53054510D02*
X160950775Y-53197367D01*
X160950775Y-53197367D02*
X160950775Y-53768796D01*
X160112680Y-52411653D02*
X161712680Y-51411653D01*
X160112680Y-51411653D02*
X161712680Y-52411653D01*
X162688590Y-53625938D02*
X162688590Y-52768796D01*
X164288590Y-53197367D02*
X162688590Y-53197367D01*
X162688590Y-52411653D02*
X164288590Y-51411653D01*
X162688590Y-51411653D02*
X164288590Y-52411653D01*
X119029210Y-54554510D02*
X119105400Y-54340225D01*
X119105400Y-54340225D02*
X119105400Y-53983082D01*
X119105400Y-53983082D02*
X119029210Y-53840225D01*
X119029210Y-53840225D02*
X118953019Y-53768796D01*
X118953019Y-53768796D02*
X118800638Y-53697367D01*
X118800638Y-53697367D02*
X118648257Y-53697367D01*
X118648257Y-53697367D02*
X118495876Y-53768796D01*
X118495876Y-53768796D02*
X118419686Y-53840225D01*
X118419686Y-53840225D02*
X118343495Y-53983082D01*
X118343495Y-53983082D02*
X118267305Y-54268796D01*
X118267305Y-54268796D02*
X118191114Y-54411653D01*
X118191114Y-54411653D02*
X118114924Y-54483082D01*
X118114924Y-54483082D02*
X117962543Y-54554510D01*
X117962543Y-54554510D02*
X117810162Y-54554510D01*
X117810162Y-54554510D02*
X117657781Y-54483082D01*
X117657781Y-54483082D02*
X117581590Y-54411653D01*
X117581590Y-54411653D02*
X117505400Y-54268796D01*
X117505400Y-54268796D02*
X117505400Y-53911653D01*
X117505400Y-53911653D02*
X117581590Y-53697367D01*
X118953019Y-52197368D02*
X119029210Y-52268796D01*
X119029210Y-52268796D02*
X119105400Y-52483082D01*
X119105400Y-52483082D02*
X119105400Y-52625939D01*
X119105400Y-52625939D02*
X119029210Y-52840225D01*
X119029210Y-52840225D02*
X118876829Y-52983082D01*
X118876829Y-52983082D02*
X118724448Y-53054511D01*
X118724448Y-53054511D02*
X118419686Y-53125939D01*
X118419686Y-53125939D02*
X118191114Y-53125939D01*
X118191114Y-53125939D02*
X117886352Y-53054511D01*
X117886352Y-53054511D02*
X117733971Y-52983082D01*
X117733971Y-52983082D02*
X117581590Y-52840225D01*
X117581590Y-52840225D02*
X117505400Y-52625939D01*
X117505400Y-52625939D02*
X117505400Y-52483082D01*
X117505400Y-52483082D02*
X117581590Y-52268796D01*
X117581590Y-52268796D02*
X117657781Y-52197368D01*
X119105400Y-50840225D02*
X119105400Y-51554511D01*
X119105400Y-51554511D02*
X117505400Y-51554511D01*
X121605120Y-54625938D02*
X121681310Y-54411653D01*
X121681310Y-54411653D02*
X121681310Y-54054510D01*
X121681310Y-54054510D02*
X121605120Y-53911653D01*
X121605120Y-53911653D02*
X121528929Y-53840224D01*
X121528929Y-53840224D02*
X121376548Y-53768795D01*
X121376548Y-53768795D02*
X121224167Y-53768795D01*
X121224167Y-53768795D02*
X121071786Y-53840224D01*
X121071786Y-53840224D02*
X120995596Y-53911653D01*
X120995596Y-53911653D02*
X120919405Y-54054510D01*
X120919405Y-54054510D02*
X120843215Y-54340224D01*
X120843215Y-54340224D02*
X120767024Y-54483081D01*
X120767024Y-54483081D02*
X120690834Y-54554510D01*
X120690834Y-54554510D02*
X120538453Y-54625938D01*
X120538453Y-54625938D02*
X120386072Y-54625938D01*
X120386072Y-54625938D02*
X120233691Y-54554510D01*
X120233691Y-54554510D02*
X120157500Y-54483081D01*
X120157500Y-54483081D02*
X120081310Y-54340224D01*
X120081310Y-54340224D02*
X120081310Y-53983081D01*
X120081310Y-53983081D02*
X120157500Y-53768795D01*
X121681310Y-53125939D02*
X120081310Y-53125939D01*
X120081310Y-53125939D02*
X120081310Y-52768796D01*
X120081310Y-52768796D02*
X120157500Y-52554510D01*
X120157500Y-52554510D02*
X120309881Y-52411653D01*
X120309881Y-52411653D02*
X120462262Y-52340224D01*
X120462262Y-52340224D02*
X120767024Y-52268796D01*
X120767024Y-52268796D02*
X120995596Y-52268796D01*
X120995596Y-52268796D02*
X121300358Y-52340224D01*
X121300358Y-52340224D02*
X121452739Y-52411653D01*
X121452739Y-52411653D02*
X121605120Y-52554510D01*
X121605120Y-52554510D02*
X121681310Y-52768796D01*
X121681310Y-52768796D02*
X121681310Y-53125939D01*
X121224167Y-51697367D02*
X121224167Y-50983082D01*
X121681310Y-51840224D02*
X120081310Y-51340224D01*
X120081310Y-51340224D02*
X121681310Y-50840224D01*
X122657220Y-55340224D02*
X122657220Y-54411652D01*
X122657220Y-54411652D02*
X123266744Y-54911652D01*
X123266744Y-54911652D02*
X123266744Y-54697367D01*
X123266744Y-54697367D02*
X123342934Y-54554510D01*
X123342934Y-54554510D02*
X123419125Y-54483081D01*
X123419125Y-54483081D02*
X123571506Y-54411652D01*
X123571506Y-54411652D02*
X123952458Y-54411652D01*
X123952458Y-54411652D02*
X124104839Y-54483081D01*
X124104839Y-54483081D02*
X124181030Y-54554510D01*
X124181030Y-54554510D02*
X124257220Y-54697367D01*
X124257220Y-54697367D02*
X124257220Y-55125938D01*
X124257220Y-55125938D02*
X124181030Y-55268795D01*
X124181030Y-55268795D02*
X124104839Y-55340224D01*
X124104839Y-53768796D02*
X124181030Y-53697367D01*
X124181030Y-53697367D02*
X124257220Y-53768796D01*
X124257220Y-53768796D02*
X124181030Y-53840224D01*
X124181030Y-53840224D02*
X124104839Y-53768796D01*
X124104839Y-53768796D02*
X124257220Y-53768796D01*
X122657220Y-53197367D02*
X122657220Y-52268795D01*
X122657220Y-52268795D02*
X123266744Y-52768795D01*
X123266744Y-52768795D02*
X123266744Y-52554510D01*
X123266744Y-52554510D02*
X123342934Y-52411653D01*
X123342934Y-52411653D02*
X123419125Y-52340224D01*
X123419125Y-52340224D02*
X123571506Y-52268795D01*
X123571506Y-52268795D02*
X123952458Y-52268795D01*
X123952458Y-52268795D02*
X124104839Y-52340224D01*
X124104839Y-52340224D02*
X124181030Y-52411653D01*
X124181030Y-52411653D02*
X124257220Y-52554510D01*
X124257220Y-52554510D02*
X124257220Y-52983081D01*
X124257220Y-52983081D02*
X124181030Y-53125938D01*
X124181030Y-53125938D02*
X124104839Y-53197367D01*
X122657220Y-51840224D02*
X124257220Y-51340224D01*
X124257220Y-51340224D02*
X122657220Y-50840224D01*
X125309320Y-54125939D02*
X125233130Y-54268797D01*
X125233130Y-54268797D02*
X125233130Y-54483082D01*
X125233130Y-54483082D02*
X125309320Y-54697368D01*
X125309320Y-54697368D02*
X125461701Y-54840225D01*
X125461701Y-54840225D02*
X125614082Y-54911654D01*
X125614082Y-54911654D02*
X125918844Y-54983082D01*
X125918844Y-54983082D02*
X126147416Y-54983082D01*
X126147416Y-54983082D02*
X126452178Y-54911654D01*
X126452178Y-54911654D02*
X126604559Y-54840225D01*
X126604559Y-54840225D02*
X126756940Y-54697368D01*
X126756940Y-54697368D02*
X126833130Y-54483082D01*
X126833130Y-54483082D02*
X126833130Y-54340225D01*
X126833130Y-54340225D02*
X126756940Y-54125939D01*
X126756940Y-54125939D02*
X126680749Y-54054511D01*
X126680749Y-54054511D02*
X126147416Y-54054511D01*
X126147416Y-54054511D02*
X126147416Y-54340225D01*
X126833130Y-53411654D02*
X125233130Y-53411654D01*
X125233130Y-53411654D02*
X126833130Y-52554511D01*
X126833130Y-52554511D02*
X125233130Y-52554511D01*
X126833130Y-51840225D02*
X125233130Y-51840225D01*
X125233130Y-51840225D02*
X125233130Y-51483082D01*
X125233130Y-51483082D02*
X125309320Y-51268796D01*
X125309320Y-51268796D02*
X125461701Y-51125939D01*
X125461701Y-51125939D02*
X125614082Y-51054510D01*
X125614082Y-51054510D02*
X125918844Y-50983082D01*
X125918844Y-50983082D02*
X126147416Y-50983082D01*
X126147416Y-50983082D02*
X126452178Y-51054510D01*
X126452178Y-51054510D02*
X126604559Y-51125939D01*
X126604559Y-51125939D02*
X126756940Y-51268796D01*
X126756940Y-51268796D02*
X126833130Y-51483082D01*
X126833130Y-51483082D02*
X126833130Y-51840225D01*
X129409040Y-54697367D02*
X127809040Y-54697367D01*
X127809040Y-54697367D02*
X127809040Y-54340224D01*
X127809040Y-54340224D02*
X127885230Y-54125938D01*
X127885230Y-54125938D02*
X128037611Y-53983081D01*
X128037611Y-53983081D02*
X128189992Y-53911652D01*
X128189992Y-53911652D02*
X128494754Y-53840224D01*
X128494754Y-53840224D02*
X128723326Y-53840224D01*
X128723326Y-53840224D02*
X129028088Y-53911652D01*
X129028088Y-53911652D02*
X129180469Y-53983081D01*
X129180469Y-53983081D02*
X129332850Y-54125938D01*
X129332850Y-54125938D02*
X129409040Y-54340224D01*
X129409040Y-54340224D02*
X129409040Y-54697367D01*
X129409040Y-52411652D02*
X129409040Y-53268795D01*
X129409040Y-52840224D02*
X127809040Y-52840224D01*
X127809040Y-52840224D02*
X128037611Y-52983081D01*
X128037611Y-52983081D02*
X128189992Y-53125938D01*
X128189992Y-53125938D02*
X128266183Y-53268795D01*
X127809040Y-51911653D02*
X127809040Y-50983081D01*
X127809040Y-50983081D02*
X128418564Y-51483081D01*
X128418564Y-51483081D02*
X128418564Y-51268796D01*
X128418564Y-51268796D02*
X128494754Y-51125939D01*
X128494754Y-51125939D02*
X128570945Y-51054510D01*
X128570945Y-51054510D02*
X128723326Y-50983081D01*
X128723326Y-50983081D02*
X129104278Y-50983081D01*
X129104278Y-50983081D02*
X129256659Y-51054510D01*
X129256659Y-51054510D02*
X129332850Y-51125939D01*
X129332850Y-51125939D02*
X129409040Y-51268796D01*
X129409040Y-51268796D02*
X129409040Y-51697367D01*
X129409040Y-51697367D02*
X129332850Y-51840224D01*
X129332850Y-51840224D02*
X129256659Y-51911653D01*
X131984950Y-54697367D02*
X130384950Y-54697367D01*
X130384950Y-54697367D02*
X130384950Y-54340224D01*
X130384950Y-54340224D02*
X130461140Y-54125938D01*
X130461140Y-54125938D02*
X130613521Y-53983081D01*
X130613521Y-53983081D02*
X130765902Y-53911652D01*
X130765902Y-53911652D02*
X131070664Y-53840224D01*
X131070664Y-53840224D02*
X131299236Y-53840224D01*
X131299236Y-53840224D02*
X131603998Y-53911652D01*
X131603998Y-53911652D02*
X131756379Y-53983081D01*
X131756379Y-53983081D02*
X131908760Y-54125938D01*
X131908760Y-54125938D02*
X131984950Y-54340224D01*
X131984950Y-54340224D02*
X131984950Y-54697367D01*
X131984950Y-52411652D02*
X131984950Y-53268795D01*
X131984950Y-52840224D02*
X130384950Y-52840224D01*
X130384950Y-52840224D02*
X130613521Y-52983081D01*
X130613521Y-52983081D02*
X130765902Y-53125938D01*
X130765902Y-53125938D02*
X130842093Y-53268795D01*
X130537331Y-51840224D02*
X130461140Y-51768796D01*
X130461140Y-51768796D02*
X130384950Y-51625939D01*
X130384950Y-51625939D02*
X130384950Y-51268796D01*
X130384950Y-51268796D02*
X130461140Y-51125939D01*
X130461140Y-51125939D02*
X130537331Y-51054510D01*
X130537331Y-51054510D02*
X130689712Y-50983081D01*
X130689712Y-50983081D02*
X130842093Y-50983081D01*
X130842093Y-50983081D02*
X131070664Y-51054510D01*
X131070664Y-51054510D02*
X131984950Y-51911653D01*
X131984950Y-51911653D02*
X131984950Y-50983081D01*
X134560860Y-54697367D02*
X132960860Y-54697367D01*
X132960860Y-54697367D02*
X132960860Y-54340224D01*
X132960860Y-54340224D02*
X133037050Y-54125938D01*
X133037050Y-54125938D02*
X133189431Y-53983081D01*
X133189431Y-53983081D02*
X133341812Y-53911652D01*
X133341812Y-53911652D02*
X133646574Y-53840224D01*
X133646574Y-53840224D02*
X133875146Y-53840224D01*
X133875146Y-53840224D02*
X134179908Y-53911652D01*
X134179908Y-53911652D02*
X134332289Y-53983081D01*
X134332289Y-53983081D02*
X134484670Y-54125938D01*
X134484670Y-54125938D02*
X134560860Y-54340224D01*
X134560860Y-54340224D02*
X134560860Y-54697367D01*
X134560860Y-52411652D02*
X134560860Y-53268795D01*
X134560860Y-52840224D02*
X132960860Y-52840224D01*
X132960860Y-52840224D02*
X133189431Y-52983081D01*
X133189431Y-52983081D02*
X133341812Y-53125938D01*
X133341812Y-53125938D02*
X133418003Y-53268795D01*
X134560860Y-50983081D02*
X134560860Y-51840224D01*
X134560860Y-51411653D02*
X132960860Y-51411653D01*
X132960860Y-51411653D02*
X133189431Y-51554510D01*
X133189431Y-51554510D02*
X133341812Y-51697367D01*
X133341812Y-51697367D02*
X133418003Y-51840224D01*
X137136770Y-54697367D02*
X135536770Y-54697367D01*
X135536770Y-54697367D02*
X135536770Y-54340224D01*
X135536770Y-54340224D02*
X135612960Y-54125938D01*
X135612960Y-54125938D02*
X135765341Y-53983081D01*
X135765341Y-53983081D02*
X135917722Y-53911652D01*
X135917722Y-53911652D02*
X136222484Y-53840224D01*
X136222484Y-53840224D02*
X136451056Y-53840224D01*
X136451056Y-53840224D02*
X136755818Y-53911652D01*
X136755818Y-53911652D02*
X136908199Y-53983081D01*
X136908199Y-53983081D02*
X137060580Y-54125938D01*
X137060580Y-54125938D02*
X137136770Y-54340224D01*
X137136770Y-54340224D02*
X137136770Y-54697367D01*
X137136770Y-52411652D02*
X137136770Y-53268795D01*
X137136770Y-52840224D02*
X135536770Y-52840224D01*
X135536770Y-52840224D02*
X135765341Y-52983081D01*
X135765341Y-52983081D02*
X135917722Y-53125938D01*
X135917722Y-53125938D02*
X135993913Y-53268795D01*
X135536770Y-51483081D02*
X135536770Y-51340224D01*
X135536770Y-51340224D02*
X135612960Y-51197367D01*
X135612960Y-51197367D02*
X135689151Y-51125939D01*
X135689151Y-51125939D02*
X135841532Y-51054510D01*
X135841532Y-51054510D02*
X136146294Y-50983081D01*
X136146294Y-50983081D02*
X136527246Y-50983081D01*
X136527246Y-50983081D02*
X136832008Y-51054510D01*
X136832008Y-51054510D02*
X136984389Y-51125939D01*
X136984389Y-51125939D02*
X137060580Y-51197367D01*
X137060580Y-51197367D02*
X137136770Y-51340224D01*
X137136770Y-51340224D02*
X137136770Y-51483081D01*
X137136770Y-51483081D02*
X137060580Y-51625939D01*
X137060580Y-51625939D02*
X136984389Y-51697367D01*
X136984389Y-51697367D02*
X136832008Y-51768796D01*
X136832008Y-51768796D02*
X136527246Y-51840224D01*
X136527246Y-51840224D02*
X136146294Y-51840224D01*
X136146294Y-51840224D02*
X135841532Y-51768796D01*
X135841532Y-51768796D02*
X135689151Y-51697367D01*
X135689151Y-51697367D02*
X135612960Y-51625939D01*
X135612960Y-51625939D02*
X135536770Y-51483081D01*
X139712680Y-53268796D02*
X138112680Y-53268796D01*
X138112680Y-53268796D02*
X138112680Y-52911653D01*
X138112680Y-52911653D02*
X138188870Y-52697367D01*
X138188870Y-52697367D02*
X138341251Y-52554510D01*
X138341251Y-52554510D02*
X138493632Y-52483081D01*
X138493632Y-52483081D02*
X138798394Y-52411653D01*
X138798394Y-52411653D02*
X139026966Y-52411653D01*
X139026966Y-52411653D02*
X139331728Y-52483081D01*
X139331728Y-52483081D02*
X139484109Y-52554510D01*
X139484109Y-52554510D02*
X139636490Y-52697367D01*
X139636490Y-52697367D02*
X139712680Y-52911653D01*
X139712680Y-52911653D02*
X139712680Y-53268796D01*
X139712680Y-51697367D02*
X139712680Y-51411653D01*
X139712680Y-51411653D02*
X139636490Y-51268796D01*
X139636490Y-51268796D02*
X139560299Y-51197367D01*
X139560299Y-51197367D02*
X139331728Y-51054510D01*
X139331728Y-51054510D02*
X139026966Y-50983081D01*
X139026966Y-50983081D02*
X138417442Y-50983081D01*
X138417442Y-50983081D02*
X138265061Y-51054510D01*
X138265061Y-51054510D02*
X138188870Y-51125939D01*
X138188870Y-51125939D02*
X138112680Y-51268796D01*
X138112680Y-51268796D02*
X138112680Y-51554510D01*
X138112680Y-51554510D02*
X138188870Y-51697367D01*
X138188870Y-51697367D02*
X138265061Y-51768796D01*
X138265061Y-51768796D02*
X138417442Y-51840224D01*
X138417442Y-51840224D02*
X138798394Y-51840224D01*
X138798394Y-51840224D02*
X138950775Y-51768796D01*
X138950775Y-51768796D02*
X139026966Y-51697367D01*
X139026966Y-51697367D02*
X139103156Y-51554510D01*
X139103156Y-51554510D02*
X139103156Y-51268796D01*
X139103156Y-51268796D02*
X139026966Y-51125939D01*
X139026966Y-51125939D02*
X138950775Y-51054510D01*
X138950775Y-51054510D02*
X138798394Y-50983081D01*
X142288590Y-53268796D02*
X140688590Y-53268796D01*
X140688590Y-53268796D02*
X140688590Y-52911653D01*
X140688590Y-52911653D02*
X140764780Y-52697367D01*
X140764780Y-52697367D02*
X140917161Y-52554510D01*
X140917161Y-52554510D02*
X141069542Y-52483081D01*
X141069542Y-52483081D02*
X141374304Y-52411653D01*
X141374304Y-52411653D02*
X141602876Y-52411653D01*
X141602876Y-52411653D02*
X141907638Y-52483081D01*
X141907638Y-52483081D02*
X142060019Y-52554510D01*
X142060019Y-52554510D02*
X142212400Y-52697367D01*
X142212400Y-52697367D02*
X142288590Y-52911653D01*
X142288590Y-52911653D02*
X142288590Y-53268796D01*
X141374304Y-51554510D02*
X141298114Y-51697367D01*
X141298114Y-51697367D02*
X141221923Y-51768796D01*
X141221923Y-51768796D02*
X141069542Y-51840224D01*
X141069542Y-51840224D02*
X140993352Y-51840224D01*
X140993352Y-51840224D02*
X140840971Y-51768796D01*
X140840971Y-51768796D02*
X140764780Y-51697367D01*
X140764780Y-51697367D02*
X140688590Y-51554510D01*
X140688590Y-51554510D02*
X140688590Y-51268796D01*
X140688590Y-51268796D02*
X140764780Y-51125939D01*
X140764780Y-51125939D02*
X140840971Y-51054510D01*
X140840971Y-51054510D02*
X140993352Y-50983081D01*
X140993352Y-50983081D02*
X141069542Y-50983081D01*
X141069542Y-50983081D02*
X141221923Y-51054510D01*
X141221923Y-51054510D02*
X141298114Y-51125939D01*
X141298114Y-51125939D02*
X141374304Y-51268796D01*
X141374304Y-51268796D02*
X141374304Y-51554510D01*
X141374304Y-51554510D02*
X141450495Y-51697367D01*
X141450495Y-51697367D02*
X141526685Y-51768796D01*
X141526685Y-51768796D02*
X141679066Y-51840224D01*
X141679066Y-51840224D02*
X141983828Y-51840224D01*
X141983828Y-51840224D02*
X142136209Y-51768796D01*
X142136209Y-51768796D02*
X142212400Y-51697367D01*
X142212400Y-51697367D02*
X142288590Y-51554510D01*
X142288590Y-51554510D02*
X142288590Y-51268796D01*
X142288590Y-51268796D02*
X142212400Y-51125939D01*
X142212400Y-51125939D02*
X142136209Y-51054510D01*
X142136209Y-51054510D02*
X141983828Y-50983081D01*
X141983828Y-50983081D02*
X141679066Y-50983081D01*
X141679066Y-50983081D02*
X141526685Y-51054510D01*
X141526685Y-51054510D02*
X141450495Y-51125939D01*
X141450495Y-51125939D02*
X141374304Y-51268796D01*
D11*
X128901132Y-71761904D02*
X129710655Y-71761904D01*
X129710655Y-71761904D02*
X129805893Y-71714285D01*
X129805893Y-71714285D02*
X129853513Y-71666666D01*
X129853513Y-71666666D02*
X129901132Y-71571428D01*
X129901132Y-71571428D02*
X129901132Y-71380952D01*
X129901132Y-71380952D02*
X129853513Y-71285714D01*
X129853513Y-71285714D02*
X129805893Y-71238095D01*
X129805893Y-71238095D02*
X129710655Y-71190476D01*
X129710655Y-71190476D02*
X128901132Y-71190476D01*
X129901132Y-70190476D02*
X129901132Y-70761904D01*
X129901132Y-70476190D02*
X128901132Y-70476190D01*
X128901132Y-70476190D02*
X129043989Y-70571428D01*
X129043989Y-70571428D02*
X129139227Y-70666666D01*
X129139227Y-70666666D02*
X129186846Y-70761904D01*
X134404819Y-60261904D02*
X135214342Y-60261904D01*
X135214342Y-60261904D02*
X135309580Y-60214285D01*
X135309580Y-60214285D02*
X135357200Y-60166666D01*
X135357200Y-60166666D02*
X135404819Y-60071428D01*
X135404819Y-60071428D02*
X135404819Y-59880952D01*
X135404819Y-59880952D02*
X135357200Y-59785714D01*
X135357200Y-59785714D02*
X135309580Y-59738095D01*
X135309580Y-59738095D02*
X135214342Y-59690476D01*
X135214342Y-59690476D02*
X134404819Y-59690476D01*
X134500057Y-59261904D02*
X134452438Y-59214285D01*
X134452438Y-59214285D02*
X134404819Y-59119047D01*
X134404819Y-59119047D02*
X134404819Y-58880952D01*
X134404819Y-58880952D02*
X134452438Y-58785714D01*
X134452438Y-58785714D02*
X134500057Y-58738095D01*
X134500057Y-58738095D02*
X134595295Y-58690476D01*
X134595295Y-58690476D02*
X134690533Y-58690476D01*
X134690533Y-58690476D02*
X134833390Y-58738095D01*
X134833390Y-58738095D02*
X135404819Y-59309523D01*
X135404819Y-59309523D02*
X135404819Y-58690476D01*
X139454819Y-64166666D02*
X138978628Y-64499999D01*
X139454819Y-64738094D02*
X138454819Y-64738094D01*
X138454819Y-64738094D02*
X138454819Y-64357142D01*
X138454819Y-64357142D02*
X138502438Y-64261904D01*
X138502438Y-64261904D02*
X138550057Y-64214285D01*
X138550057Y-64214285D02*
X138645295Y-64166666D01*
X138645295Y-64166666D02*
X138788152Y-64166666D01*
X138788152Y-64166666D02*
X138883390Y-64214285D01*
X138883390Y-64214285D02*
X138931009Y-64261904D01*
X138931009Y-64261904D02*
X138978628Y-64357142D01*
X138978628Y-64357142D02*
X138978628Y-64738094D01*
X138454819Y-63833332D02*
X138454819Y-63214285D01*
X138454819Y-63214285D02*
X138835771Y-63547618D01*
X138835771Y-63547618D02*
X138835771Y-63404761D01*
X138835771Y-63404761D02*
X138883390Y-63309523D01*
X138883390Y-63309523D02*
X138931009Y-63261904D01*
X138931009Y-63261904D02*
X139026247Y-63214285D01*
X139026247Y-63214285D02*
X139264342Y-63214285D01*
X139264342Y-63214285D02*
X139359580Y-63261904D01*
X139359580Y-63261904D02*
X139407200Y-63309523D01*
X139407200Y-63309523D02*
X139454819Y-63404761D01*
X139454819Y-63404761D02*
X139454819Y-63690475D01*
X139454819Y-63690475D02*
X139407200Y-63785713D01*
X139407200Y-63785713D02*
X139359580Y-63833332D01*
X123333333Y-90519580D02*
X123285714Y-90567200D01*
X123285714Y-90567200D02*
X123142857Y-90614819D01*
X123142857Y-90614819D02*
X123047619Y-90614819D01*
X123047619Y-90614819D02*
X122904762Y-90567200D01*
X122904762Y-90567200D02*
X122809524Y-90471961D01*
X122809524Y-90471961D02*
X122761905Y-90376723D01*
X122761905Y-90376723D02*
X122714286Y-90186247D01*
X122714286Y-90186247D02*
X122714286Y-90043390D01*
X122714286Y-90043390D02*
X122761905Y-89852914D01*
X122761905Y-89852914D02*
X122809524Y-89757676D01*
X122809524Y-89757676D02*
X122904762Y-89662438D01*
X122904762Y-89662438D02*
X123047619Y-89614819D01*
X123047619Y-89614819D02*
X123142857Y-89614819D01*
X123142857Y-89614819D02*
X123285714Y-89662438D01*
X123285714Y-89662438D02*
X123333333Y-89710057D01*
X124238095Y-89614819D02*
X123761905Y-89614819D01*
X123761905Y-89614819D02*
X123714286Y-90091009D01*
X123714286Y-90091009D02*
X123761905Y-90043390D01*
X123761905Y-90043390D02*
X123857143Y-89995771D01*
X123857143Y-89995771D02*
X124095238Y-89995771D01*
X124095238Y-89995771D02*
X124190476Y-90043390D01*
X124190476Y-90043390D02*
X124238095Y-90091009D01*
X124238095Y-90091009D02*
X124285714Y-90186247D01*
X124285714Y-90186247D02*
X124285714Y-90424342D01*
X124285714Y-90424342D02*
X124238095Y-90519580D01*
X124238095Y-90519580D02*
X124190476Y-90567200D01*
X124190476Y-90567200D02*
X124095238Y-90614819D01*
X124095238Y-90614819D02*
X123857143Y-90614819D01*
X123857143Y-90614819D02*
X123761905Y-90567200D01*
X123761905Y-90567200D02*
X123714286Y-90519580D01*
X152166666Y-69454819D02*
X152166666Y-70169104D01*
X152166666Y-70169104D02*
X152119047Y-70311961D01*
X152119047Y-70311961D02*
X152023809Y-70407200D01*
X152023809Y-70407200D02*
X151880952Y-70454819D01*
X151880952Y-70454819D02*
X151785714Y-70454819D01*
X152547619Y-69454819D02*
X153214285Y-69454819D01*
X153214285Y-69454819D02*
X152785714Y-70454819D01*
X126833333Y-71998483D02*
X126500000Y-71522292D01*
X126261905Y-71998483D02*
X126261905Y-70998483D01*
X126261905Y-70998483D02*
X126642857Y-70998483D01*
X126642857Y-70998483D02*
X126738095Y-71046102D01*
X126738095Y-71046102D02*
X126785714Y-71093721D01*
X126785714Y-71093721D02*
X126833333Y-71188959D01*
X126833333Y-71188959D02*
X126833333Y-71331816D01*
X126833333Y-71331816D02*
X126785714Y-71427054D01*
X126785714Y-71427054D02*
X126738095Y-71474673D01*
X126738095Y-71474673D02*
X126642857Y-71522292D01*
X126642857Y-71522292D02*
X126261905Y-71522292D01*
X127785714Y-71998483D02*
X127214286Y-71998483D01*
X127500000Y-71998483D02*
X127500000Y-70998483D01*
X127500000Y-70998483D02*
X127404762Y-71141340D01*
X127404762Y-71141340D02*
X127309524Y-71236578D01*
X127309524Y-71236578D02*
X127214286Y-71284197D01*
X150333333Y-88859580D02*
X150285714Y-88907200D01*
X150285714Y-88907200D02*
X150142857Y-88954819D01*
X150142857Y-88954819D02*
X150047619Y-88954819D01*
X150047619Y-88954819D02*
X149904762Y-88907200D01*
X149904762Y-88907200D02*
X149809524Y-88811961D01*
X149809524Y-88811961D02*
X149761905Y-88716723D01*
X149761905Y-88716723D02*
X149714286Y-88526247D01*
X149714286Y-88526247D02*
X149714286Y-88383390D01*
X149714286Y-88383390D02*
X149761905Y-88192914D01*
X149761905Y-88192914D02*
X149809524Y-88097676D01*
X149809524Y-88097676D02*
X149904762Y-88002438D01*
X149904762Y-88002438D02*
X150047619Y-87954819D01*
X150047619Y-87954819D02*
X150142857Y-87954819D01*
X150142857Y-87954819D02*
X150285714Y-88002438D01*
X150285714Y-88002438D02*
X150333333Y-88050057D01*
X150714286Y-88050057D02*
X150761905Y-88002438D01*
X150761905Y-88002438D02*
X150857143Y-87954819D01*
X150857143Y-87954819D02*
X151095238Y-87954819D01*
X151095238Y-87954819D02*
X151190476Y-88002438D01*
X151190476Y-88002438D02*
X151238095Y-88050057D01*
X151238095Y-88050057D02*
X151285714Y-88145295D01*
X151285714Y-88145295D02*
X151285714Y-88240533D01*
X151285714Y-88240533D02*
X151238095Y-88383390D01*
X151238095Y-88383390D02*
X150666667Y-88954819D01*
X150666667Y-88954819D02*
X151285714Y-88954819D01*
X151261904Y-58554438D02*
X151166666Y-58506819D01*
X151166666Y-58506819D02*
X151023809Y-58506819D01*
X151023809Y-58506819D02*
X150880952Y-58554438D01*
X150880952Y-58554438D02*
X150785714Y-58649676D01*
X150785714Y-58649676D02*
X150738095Y-58744914D01*
X150738095Y-58744914D02*
X150690476Y-58935390D01*
X150690476Y-58935390D02*
X150690476Y-59078247D01*
X150690476Y-59078247D02*
X150738095Y-59268723D01*
X150738095Y-59268723D02*
X150785714Y-59363961D01*
X150785714Y-59363961D02*
X150880952Y-59459200D01*
X150880952Y-59459200D02*
X151023809Y-59506819D01*
X151023809Y-59506819D02*
X151119047Y-59506819D01*
X151119047Y-59506819D02*
X151261904Y-59459200D01*
X151261904Y-59459200D02*
X151309523Y-59411580D01*
X151309523Y-59411580D02*
X151309523Y-59078247D01*
X151309523Y-59078247D02*
X151119047Y-59078247D01*
X151738095Y-59506819D02*
X151738095Y-58506819D01*
X151738095Y-58506819D02*
X152309523Y-59506819D01*
X152309523Y-59506819D02*
X152309523Y-58506819D01*
X152785714Y-59506819D02*
X152785714Y-58506819D01*
X152785714Y-58506819D02*
X153023809Y-58506819D01*
X153023809Y-58506819D02*
X153166666Y-58554438D01*
X153166666Y-58554438D02*
X153261904Y-58649676D01*
X153261904Y-58649676D02*
X153309523Y-58744914D01*
X153309523Y-58744914D02*
X153357142Y-58935390D01*
X153357142Y-58935390D02*
X153357142Y-59078247D01*
X153357142Y-59078247D02*
X153309523Y-59268723D01*
X153309523Y-59268723D02*
X153261904Y-59363961D01*
X153261904Y-59363961D02*
X153166666Y-59459200D01*
X153166666Y-59459200D02*
X153023809Y-59506819D01*
X153023809Y-59506819D02*
X152785714Y-59506819D01*
X154309523Y-59506819D02*
X153738095Y-59506819D01*
X154023809Y-59506819D02*
X154023809Y-58506819D01*
X154023809Y-58506819D02*
X153928571Y-58649676D01*
X153928571Y-58649676D02*
X153833333Y-58744914D01*
X153833333Y-58744914D02*
X153738095Y-58792533D01*
X158833333Y-80659580D02*
X158785714Y-80707200D01*
X158785714Y-80707200D02*
X158642857Y-80754819D01*
X158642857Y-80754819D02*
X158547619Y-80754819D01*
X158547619Y-80754819D02*
X158404762Y-80707200D01*
X158404762Y-80707200D02*
X158309524Y-80611961D01*
X158309524Y-80611961D02*
X158261905Y-80516723D01*
X158261905Y-80516723D02*
X158214286Y-80326247D01*
X158214286Y-80326247D02*
X158214286Y-80183390D01*
X158214286Y-80183390D02*
X158261905Y-79992914D01*
X158261905Y-79992914D02*
X158309524Y-79897676D01*
X158309524Y-79897676D02*
X158404762Y-79802438D01*
X158404762Y-79802438D02*
X158547619Y-79754819D01*
X158547619Y-79754819D02*
X158642857Y-79754819D01*
X158642857Y-79754819D02*
X158785714Y-79802438D01*
X158785714Y-79802438D02*
X158833333Y-79850057D01*
X159166667Y-79754819D02*
X159785714Y-79754819D01*
X159785714Y-79754819D02*
X159452381Y-80135771D01*
X159452381Y-80135771D02*
X159595238Y-80135771D01*
X159595238Y-80135771D02*
X159690476Y-80183390D01*
X159690476Y-80183390D02*
X159738095Y-80231009D01*
X159738095Y-80231009D02*
X159785714Y-80326247D01*
X159785714Y-80326247D02*
X159785714Y-80564342D01*
X159785714Y-80564342D02*
X159738095Y-80659580D01*
X159738095Y-80659580D02*
X159690476Y-80707200D01*
X159690476Y-80707200D02*
X159595238Y-80754819D01*
X159595238Y-80754819D02*
X159309524Y-80754819D01*
X159309524Y-80754819D02*
X159214286Y-80707200D01*
X159214286Y-80707200D02*
X159166667Y-80659580D01*
X152166666Y-83954819D02*
X152166666Y-84669104D01*
X152166666Y-84669104D02*
X152119047Y-84811961D01*
X152119047Y-84811961D02*
X152023809Y-84907200D01*
X152023809Y-84907200D02*
X151880952Y-84954819D01*
X151880952Y-84954819D02*
X151785714Y-84954819D01*
X153119047Y-83954819D02*
X152642857Y-83954819D01*
X152642857Y-83954819D02*
X152595238Y-84431009D01*
X152595238Y-84431009D02*
X152642857Y-84383390D01*
X152642857Y-84383390D02*
X152738095Y-84335771D01*
X152738095Y-84335771D02*
X152976190Y-84335771D01*
X152976190Y-84335771D02*
X153071428Y-84383390D01*
X153071428Y-84383390D02*
X153119047Y-84431009D01*
X153119047Y-84431009D02*
X153166666Y-84526247D01*
X153166666Y-84526247D02*
X153166666Y-84764342D01*
X153166666Y-84764342D02*
X153119047Y-84859580D01*
X153119047Y-84859580D02*
X153071428Y-84907200D01*
X153071428Y-84907200D02*
X152976190Y-84954819D01*
X152976190Y-84954819D02*
X152738095Y-84954819D01*
X152738095Y-84954819D02*
X152642857Y-84907200D01*
X152642857Y-84907200D02*
X152595238Y-84859580D01*
X138199580Y-71370330D02*
X138247200Y-71417949D01*
X138247200Y-71417949D02*
X138294819Y-71560806D01*
X138294819Y-71560806D02*
X138294819Y-71656044D01*
X138294819Y-71656044D02*
X138247200Y-71798901D01*
X138247200Y-71798901D02*
X138151961Y-71894139D01*
X138151961Y-71894139D02*
X138056723Y-71941758D01*
X138056723Y-71941758D02*
X137866247Y-71989377D01*
X137866247Y-71989377D02*
X137723390Y-71989377D01*
X137723390Y-71989377D02*
X137532914Y-71941758D01*
X137532914Y-71941758D02*
X137437676Y-71894139D01*
X137437676Y-71894139D02*
X137342438Y-71798901D01*
X137342438Y-71798901D02*
X137294819Y-71656044D01*
X137294819Y-71656044D02*
X137294819Y-71560806D01*
X137294819Y-71560806D02*
X137342438Y-71417949D01*
X137342438Y-71417949D02*
X137390057Y-71370330D01*
X138294819Y-70417949D02*
X138294819Y-70989377D01*
X138294819Y-70703663D02*
X137294819Y-70703663D01*
X137294819Y-70703663D02*
X137437676Y-70798901D01*
X137437676Y-70798901D02*
X137532914Y-70894139D01*
X137532914Y-70894139D02*
X137580533Y-70989377D01*
X126454819Y-83023809D02*
X125978628Y-83357142D01*
X126454819Y-83595237D02*
X125454819Y-83595237D01*
X125454819Y-83595237D02*
X125454819Y-83214285D01*
X125454819Y-83214285D02*
X125502438Y-83119047D01*
X125502438Y-83119047D02*
X125550057Y-83071428D01*
X125550057Y-83071428D02*
X125645295Y-83023809D01*
X125645295Y-83023809D02*
X125788152Y-83023809D01*
X125788152Y-83023809D02*
X125883390Y-83071428D01*
X125883390Y-83071428D02*
X125931009Y-83119047D01*
X125931009Y-83119047D02*
X125978628Y-83214285D01*
X125978628Y-83214285D02*
X125978628Y-83595237D01*
X126407200Y-82642856D02*
X126454819Y-82499999D01*
X126454819Y-82499999D02*
X126454819Y-82261904D01*
X126454819Y-82261904D02*
X126407200Y-82166666D01*
X126407200Y-82166666D02*
X126359580Y-82119047D01*
X126359580Y-82119047D02*
X126264342Y-82071428D01*
X126264342Y-82071428D02*
X126169104Y-82071428D01*
X126169104Y-82071428D02*
X126073866Y-82119047D01*
X126073866Y-82119047D02*
X126026247Y-82166666D01*
X126026247Y-82166666D02*
X125978628Y-82261904D01*
X125978628Y-82261904D02*
X125931009Y-82452380D01*
X125931009Y-82452380D02*
X125883390Y-82547618D01*
X125883390Y-82547618D02*
X125835771Y-82595237D01*
X125835771Y-82595237D02*
X125740533Y-82642856D01*
X125740533Y-82642856D02*
X125645295Y-82642856D01*
X125645295Y-82642856D02*
X125550057Y-82595237D01*
X125550057Y-82595237D02*
X125502438Y-82547618D01*
X125502438Y-82547618D02*
X125454819Y-82452380D01*
X125454819Y-82452380D02*
X125454819Y-82214285D01*
X125454819Y-82214285D02*
X125502438Y-82071428D01*
X125454819Y-81785713D02*
X125454819Y-81214285D01*
X126454819Y-81499999D02*
X125454819Y-81499999D01*
X126454819Y-80357142D02*
X126454819Y-80928570D01*
X126454819Y-80642856D02*
X125454819Y-80642856D01*
X125454819Y-80642856D02*
X125597676Y-80738094D01*
X125597676Y-80738094D02*
X125692914Y-80833332D01*
X125692914Y-80833332D02*
X125740533Y-80928570D01*
X125333333Y-59114819D02*
X125000000Y-58638628D01*
X124761905Y-59114819D02*
X124761905Y-58114819D01*
X124761905Y-58114819D02*
X125142857Y-58114819D01*
X125142857Y-58114819D02*
X125238095Y-58162438D01*
X125238095Y-58162438D02*
X125285714Y-58210057D01*
X125285714Y-58210057D02*
X125333333Y-58305295D01*
X125333333Y-58305295D02*
X125333333Y-58448152D01*
X125333333Y-58448152D02*
X125285714Y-58543390D01*
X125285714Y-58543390D02*
X125238095Y-58591009D01*
X125238095Y-58591009D02*
X125142857Y-58638628D01*
X125142857Y-58638628D02*
X124761905Y-58638628D01*
X126190476Y-58448152D02*
X126190476Y-59114819D01*
X125952381Y-58067200D02*
X125714286Y-58781485D01*
X125714286Y-58781485D02*
X126333333Y-58781485D01*
X150333333Y-80859580D02*
X150285714Y-80907200D01*
X150285714Y-80907200D02*
X150142857Y-80954819D01*
X150142857Y-80954819D02*
X150047619Y-80954819D01*
X150047619Y-80954819D02*
X149904762Y-80907200D01*
X149904762Y-80907200D02*
X149809524Y-80811961D01*
X149809524Y-80811961D02*
X149761905Y-80716723D01*
X149761905Y-80716723D02*
X149714286Y-80526247D01*
X149714286Y-80526247D02*
X149714286Y-80383390D01*
X149714286Y-80383390D02*
X149761905Y-80192914D01*
X149761905Y-80192914D02*
X149809524Y-80097676D01*
X149809524Y-80097676D02*
X149904762Y-80002438D01*
X149904762Y-80002438D02*
X150047619Y-79954819D01*
X150047619Y-79954819D02*
X150142857Y-79954819D01*
X150142857Y-79954819D02*
X150285714Y-80002438D01*
X150285714Y-80002438D02*
X150333333Y-80050057D01*
X151190476Y-80288152D02*
X151190476Y-80954819D01*
X150952381Y-79907200D02*
X150714286Y-80621485D01*
X150714286Y-80621485D02*
X151333333Y-80621485D01*
X150333333Y-73859580D02*
X150285714Y-73907200D01*
X150285714Y-73907200D02*
X150142857Y-73954819D01*
X150142857Y-73954819D02*
X150047619Y-73954819D01*
X150047619Y-73954819D02*
X149904762Y-73907200D01*
X149904762Y-73907200D02*
X149809524Y-73811961D01*
X149809524Y-73811961D02*
X149761905Y-73716723D01*
X149761905Y-73716723D02*
X149714286Y-73526247D01*
X149714286Y-73526247D02*
X149714286Y-73383390D01*
X149714286Y-73383390D02*
X149761905Y-73192914D01*
X149761905Y-73192914D02*
X149809524Y-73097676D01*
X149809524Y-73097676D02*
X149904762Y-73002438D01*
X149904762Y-73002438D02*
X150047619Y-72954819D01*
X150047619Y-72954819D02*
X150142857Y-72954819D01*
X150142857Y-72954819D02*
X150285714Y-73002438D01*
X150285714Y-73002438D02*
X150333333Y-73050057D01*
X150666667Y-72954819D02*
X151333333Y-72954819D01*
X151333333Y-72954819D02*
X150904762Y-73954819D01*
X152166666Y-76454819D02*
X152166666Y-77169104D01*
X152166666Y-77169104D02*
X152119047Y-77311961D01*
X152119047Y-77311961D02*
X152023809Y-77407200D01*
X152023809Y-77407200D02*
X151880952Y-77454819D01*
X151880952Y-77454819D02*
X151785714Y-77454819D01*
X153071428Y-76454819D02*
X152880952Y-76454819D01*
X152880952Y-76454819D02*
X152785714Y-76502438D01*
X152785714Y-76502438D02*
X152738095Y-76550057D01*
X152738095Y-76550057D02*
X152642857Y-76692914D01*
X152642857Y-76692914D02*
X152595238Y-76883390D01*
X152595238Y-76883390D02*
X152595238Y-77264342D01*
X152595238Y-77264342D02*
X152642857Y-77359580D01*
X152642857Y-77359580D02*
X152690476Y-77407200D01*
X152690476Y-77407200D02*
X152785714Y-77454819D01*
X152785714Y-77454819D02*
X152976190Y-77454819D01*
X152976190Y-77454819D02*
X153071428Y-77407200D01*
X153071428Y-77407200D02*
X153119047Y-77359580D01*
X153119047Y-77359580D02*
X153166666Y-77264342D01*
X153166666Y-77264342D02*
X153166666Y-77026247D01*
X153166666Y-77026247D02*
X153119047Y-76931009D01*
X153119047Y-76931009D02*
X153071428Y-76883390D01*
X153071428Y-76883390D02*
X152976190Y-76835771D01*
X152976190Y-76835771D02*
X152785714Y-76835771D01*
X152785714Y-76835771D02*
X152690476Y-76883390D01*
X152690476Y-76883390D02*
X152642857Y-76931009D01*
X152642857Y-76931009D02*
X152595238Y-77026247D01*
X126833333Y-65318483D02*
X126500000Y-64842292D01*
X126261905Y-65318483D02*
X126261905Y-64318483D01*
X126261905Y-64318483D02*
X126642857Y-64318483D01*
X126642857Y-64318483D02*
X126738095Y-64366102D01*
X126738095Y-64366102D02*
X126785714Y-64413721D01*
X126785714Y-64413721D02*
X126833333Y-64508959D01*
X126833333Y-64508959D02*
X126833333Y-64651816D01*
X126833333Y-64651816D02*
X126785714Y-64747054D01*
X126785714Y-64747054D02*
X126738095Y-64794673D01*
X126738095Y-64794673D02*
X126642857Y-64842292D01*
X126642857Y-64842292D02*
X126261905Y-64842292D01*
X127214286Y-64413721D02*
X127261905Y-64366102D01*
X127261905Y-64366102D02*
X127357143Y-64318483D01*
X127357143Y-64318483D02*
X127595238Y-64318483D01*
X127595238Y-64318483D02*
X127690476Y-64366102D01*
X127690476Y-64366102D02*
X127738095Y-64413721D01*
X127738095Y-64413721D02*
X127785714Y-64508959D01*
X127785714Y-64508959D02*
X127785714Y-64604197D01*
X127785714Y-64604197D02*
X127738095Y-64747054D01*
X127738095Y-64747054D02*
X127166667Y-65318483D01*
X127166667Y-65318483D02*
X127785714Y-65318483D01*
X123833333Y-88199580D02*
X123785714Y-88247200D01*
X123785714Y-88247200D02*
X123642857Y-88294819D01*
X123642857Y-88294819D02*
X123547619Y-88294819D01*
X123547619Y-88294819D02*
X123404762Y-88247200D01*
X123404762Y-88247200D02*
X123309524Y-88151961D01*
X123309524Y-88151961D02*
X123261905Y-88056723D01*
X123261905Y-88056723D02*
X123214286Y-87866247D01*
X123214286Y-87866247D02*
X123214286Y-87723390D01*
X123214286Y-87723390D02*
X123261905Y-87532914D01*
X123261905Y-87532914D02*
X123309524Y-87437676D01*
X123309524Y-87437676D02*
X123404762Y-87342438D01*
X123404762Y-87342438D02*
X123547619Y-87294819D01*
X123547619Y-87294819D02*
X123642857Y-87294819D01*
X123642857Y-87294819D02*
X123785714Y-87342438D01*
X123785714Y-87342438D02*
X123833333Y-87390057D01*
X124690476Y-87294819D02*
X124500000Y-87294819D01*
X124500000Y-87294819D02*
X124404762Y-87342438D01*
X124404762Y-87342438D02*
X124357143Y-87390057D01*
X124357143Y-87390057D02*
X124261905Y-87532914D01*
X124261905Y-87532914D02*
X124214286Y-87723390D01*
X124214286Y-87723390D02*
X124214286Y-88104342D01*
X124214286Y-88104342D02*
X124261905Y-88199580D01*
X124261905Y-88199580D02*
X124309524Y-88247200D01*
X124309524Y-88247200D02*
X124404762Y-88294819D01*
X124404762Y-88294819D02*
X124595238Y-88294819D01*
X124595238Y-88294819D02*
X124690476Y-88247200D01*
X124690476Y-88247200D02*
X124738095Y-88199580D01*
X124738095Y-88199580D02*
X124785714Y-88104342D01*
X124785714Y-88104342D02*
X124785714Y-87866247D01*
X124785714Y-87866247D02*
X124738095Y-87771009D01*
X124738095Y-87771009D02*
X124690476Y-87723390D01*
X124690476Y-87723390D02*
X124595238Y-87675771D01*
X124595238Y-87675771D02*
X124404762Y-87675771D01*
X124404762Y-87675771D02*
X124309524Y-87723390D01*
X124309524Y-87723390D02*
X124261905Y-87771009D01*
X124261905Y-87771009D02*
X124214286Y-87866247D01*
D12*
X130286313Y-71000000D02*
X130286313Y-72500000D01*
X130286313Y-71000000D02*
X130286313Y-69500000D01*
X133506313Y-71000000D02*
X133506313Y-72500000D01*
X133506313Y-71000000D02*
X133506313Y-69500000D01*
X130461313Y-73212500D02*
X130131313Y-73452500D01*
X130131313Y-72972500D01*
X130461313Y-73212500D01*
G36*
X130461313Y-73212500D02*
G01*
X130131313Y-73452500D01*
X130131313Y-72972500D01*
X130461313Y-73212500D01*
G37*
X126610000Y-96130000D02*
X127940000Y-96130000D01*
X126610000Y-97460000D02*
X126610000Y-96130000D01*
X129210000Y-96130000D02*
X147050000Y-96130000D01*
X129210000Y-98790000D02*
X129210000Y-96130000D01*
X129210000Y-98790000D02*
X147050000Y-98790000D01*
X147050000Y-98790000D02*
X147050000Y-96130000D01*
X149470000Y-96130000D02*
X150800000Y-96130000D01*
X149470000Y-97460000D02*
X149470000Y-96130000D01*
X152070000Y-96130000D02*
X164830000Y-96130000D01*
X152070000Y-98790000D02*
X152070000Y-96130000D01*
X152070000Y-98790000D02*
X164830000Y-98790000D01*
X164830000Y-98790000D02*
X164830000Y-96130000D01*
X117466000Y-47870000D02*
X118796000Y-47870000D01*
X117466000Y-49200000D02*
X117466000Y-47870000D01*
X120066000Y-47870000D02*
X142986000Y-47870000D01*
X120066000Y-50530000D02*
X120066000Y-47870000D01*
X120066000Y-50530000D02*
X142986000Y-50530000D01*
X142986000Y-50530000D02*
X142986000Y-47870000D01*
X144390000Y-47870000D02*
X145720000Y-47870000D01*
X144390000Y-49200000D02*
X144390000Y-47870000D01*
X146990000Y-47870000D02*
X164830000Y-47870000D01*
X146990000Y-50530000D02*
X146990000Y-47870000D01*
X146990000Y-50530000D02*
X164830000Y-50530000D01*
X164830000Y-50530000D02*
X164830000Y-47870000D01*
X128890000Y-59500000D02*
X128890000Y-57300000D01*
X128890000Y-59500000D02*
X128890000Y-61700000D01*
X134110000Y-59500000D02*
X134110000Y-57300000D01*
X134110000Y-59500000D02*
X134110000Y-61700000D01*
X134240000Y-56840000D02*
X133910000Y-56600000D01*
X134240000Y-56360000D01*
X134240000Y-56840000D01*
G36*
X134240000Y-56840000D02*
G01*
X133910000Y-56600000D01*
X134240000Y-56360000D01*
X134240000Y-56840000D01*
G37*
X138200000Y-66883664D02*
X138200000Y-67483664D01*
X139800000Y-66903664D02*
X139800000Y-67503664D01*
X123180000Y-92800000D02*
X123780000Y-92800000D01*
X123200000Y-91200000D02*
X123800000Y-91200000D01*
X140890000Y-67715000D02*
X140890000Y-71735000D01*
X140890000Y-69215000D02*
X141890000Y-69215000D01*
X140890000Y-71735000D02*
X151110000Y-71735000D01*
X141390000Y-70025000D02*
X140890000Y-70025000D01*
X141390000Y-71235000D02*
X141390000Y-70025000D01*
X141890000Y-69215000D02*
X141890000Y-67715000D01*
X150110000Y-69215000D02*
X150110000Y-67715000D01*
X150610000Y-70025000D02*
X150610000Y-71235000D01*
X150610000Y-71235000D02*
X141390000Y-71235000D01*
X151110000Y-67715000D02*
X140890000Y-67715000D01*
X151110000Y-69215000D02*
X150110000Y-69215000D01*
X151110000Y-70025000D02*
X150610000Y-70025000D01*
X151110000Y-71735000D02*
X151110000Y-67715000D01*
X151410000Y-67415000D02*
X148910000Y-67415000D01*
X151410000Y-69915000D02*
X151410000Y-67415000D01*
X127300000Y-70503664D02*
X126700000Y-70503664D01*
X127320000Y-68903664D02*
X126720000Y-68903664D01*
X147180000Y-89325000D02*
X147780000Y-89325000D01*
X147200000Y-87725000D02*
X147800000Y-87725000D01*
X151800000Y-59800000D02*
X153200000Y-59800000D01*
X151800000Y-61200000D02*
X151800000Y-59800000D01*
X153200000Y-59800000D02*
X153200000Y-61200000D01*
X153200000Y-61200000D02*
X151800000Y-61200000D01*
X153500000Y-82990000D02*
X154500000Y-82990000D01*
X154000000Y-82490000D02*
X154000000Y-83490000D01*
X154740000Y-82304437D02*
X154740000Y-83990000D01*
X154740000Y-82304437D02*
X155804437Y-81240000D01*
X154740000Y-88695563D02*
X154740000Y-87010000D01*
X154740000Y-88695563D02*
X155804437Y-89760000D01*
X155804437Y-81240000D02*
X163260000Y-81240000D01*
X155804437Y-89760000D02*
X163260000Y-89760000D01*
X163260000Y-81240000D02*
X163260000Y-83990000D01*
X163260000Y-89760000D02*
X163260000Y-87010000D01*
X140890000Y-82215000D02*
X140890000Y-86235000D01*
X140890000Y-83715000D02*
X141890000Y-83715000D01*
X140890000Y-86235000D02*
X151110000Y-86235000D01*
X141390000Y-84525000D02*
X140890000Y-84525000D01*
X141390000Y-85735000D02*
X141390000Y-84525000D01*
X141890000Y-83715000D02*
X141890000Y-82215000D01*
X150110000Y-83715000D02*
X150110000Y-82215000D01*
X150610000Y-84525000D02*
X150610000Y-85735000D01*
X150610000Y-85735000D02*
X141390000Y-85735000D01*
X151110000Y-82215000D02*
X140890000Y-82215000D01*
X151110000Y-83715000D02*
X150110000Y-83715000D01*
X151110000Y-84525000D02*
X150610000Y-84525000D01*
X151110000Y-86235000D02*
X151110000Y-82215000D01*
X151410000Y-81915000D02*
X148910000Y-81915000D01*
X151410000Y-84415000D02*
X151410000Y-81915000D01*
X135200000Y-70883664D02*
X135200000Y-71483664D01*
X136800000Y-70903664D02*
X136800000Y-71503664D01*
X127000000Y-78800000D02*
X127000000Y-85200000D01*
X127000000Y-85200000D02*
X128200000Y-85200000D01*
X128200000Y-78800000D02*
X127000000Y-78800000D01*
X129800000Y-85200000D02*
X131000000Y-85200000D01*
X131000000Y-78800000D02*
X129800000Y-78800000D01*
X131000000Y-85200000D02*
X131000000Y-78800000D01*
X125180000Y-61300000D02*
X125780000Y-61300000D01*
X125200000Y-59700000D02*
X125800000Y-59700000D01*
X147180000Y-81325000D02*
X147780000Y-81325000D01*
X147200000Y-79725000D02*
X147800000Y-79725000D01*
X147130000Y-74325000D02*
X147730000Y-74325000D01*
X147150000Y-72725000D02*
X147750000Y-72725000D01*
X140940000Y-75015000D02*
X140940000Y-79035000D01*
X140940000Y-76515000D02*
X141940000Y-76515000D01*
X140940000Y-79035000D02*
X151160000Y-79035000D01*
X141440000Y-77325000D02*
X140940000Y-77325000D01*
X141440000Y-78535000D02*
X141440000Y-77325000D01*
X141940000Y-76515000D02*
X141940000Y-75015000D01*
X150160000Y-76515000D02*
X150160000Y-75015000D01*
X150660000Y-77325000D02*
X150660000Y-78535000D01*
X150660000Y-78535000D02*
X141440000Y-78535000D01*
X151160000Y-75015000D02*
X140940000Y-75015000D01*
X151160000Y-76515000D02*
X150160000Y-76515000D01*
X151160000Y-77325000D02*
X150660000Y-77325000D01*
X151160000Y-79035000D02*
X151160000Y-75015000D01*
X151460000Y-74715000D02*
X148960000Y-74715000D01*
X151460000Y-77215000D02*
X151460000Y-74715000D01*
X126680000Y-67503664D02*
X127280000Y-67503664D01*
X126700000Y-65903664D02*
X127300000Y-65903664D01*
X124300000Y-86800000D02*
X123700000Y-86800000D01*
X124320000Y-85200000D02*
X123720000Y-85200000D01*
%LPC*%
D13*
X130921313Y-73112500D03*
X131571313Y-73112500D03*
X132221313Y-73112500D03*
X132871313Y-73112500D03*
X132871313Y-68887500D03*
X132221313Y-68887500D03*
X131571313Y-68887500D03*
X130921313Y-68887500D03*
D14*
X127940000Y-97460000D03*
D15*
X130480000Y-97460000D03*
X133020000Y-97460000D03*
X135560000Y-97460000D03*
X138100000Y-97460000D03*
X140640000Y-97460000D03*
X143180000Y-97460000D03*
X145720000Y-97460000D03*
D14*
X150800000Y-97460000D03*
D15*
X153340000Y-97460000D03*
X155880000Y-97460000D03*
X158420000Y-97460000D03*
X160960000Y-97460000D03*
X163500000Y-97460000D03*
D14*
X118796000Y-49200000D03*
D15*
X121336000Y-49200000D03*
X123876000Y-49200000D03*
X126416000Y-49200000D03*
X128956000Y-49200000D03*
X131496000Y-49200000D03*
X134036000Y-49200000D03*
X136576000Y-49200000D03*
X139116000Y-49200000D03*
X141656000Y-49200000D03*
D14*
X145720000Y-49200000D03*
D15*
X148260000Y-49200000D03*
X150800000Y-49200000D03*
X153340000Y-49200000D03*
X155880000Y-49200000D03*
X158420000Y-49200000D03*
X160960000Y-49200000D03*
X163500000Y-49200000D03*
D16*
X133450000Y-56637500D03*
X132800000Y-56637500D03*
X132150000Y-56637500D03*
X131500000Y-56637500D03*
X130850000Y-56637500D03*
X130200000Y-56637500D03*
X129550000Y-56637500D03*
X129550000Y-62362500D03*
X130200000Y-62362500D03*
X130850000Y-62362500D03*
X131500000Y-62362500D03*
X132150000Y-62362500D03*
X132800000Y-62362500D03*
X133450000Y-62362500D03*
D17*
X139000000Y-66153664D03*
X139000000Y-68253664D03*
X122450000Y-92000000D03*
X124550000Y-92000000D03*
D18*
X148500000Y-70025000D03*
D19*
X146000000Y-70025000D03*
X143500000Y-70025000D03*
D17*
X128050000Y-69703664D03*
X125950000Y-69703664D03*
X146450000Y-88525000D03*
X148550000Y-88525000D03*
D20*
X152500000Y-60500000D03*
D21*
X115240000Y-49200000D03*
D22*
X155950000Y-85500000D03*
X162050000Y-85500000D03*
D18*
X148500000Y-84525000D03*
D19*
X146000000Y-84525000D03*
X143500000Y-84525000D03*
D17*
X136000000Y-70153664D03*
X136000000Y-72253664D03*
D23*
X129000000Y-85875000D03*
X129000000Y-78125000D03*
D17*
X124450000Y-60500000D03*
X126550000Y-60500000D03*
X146450000Y-80525000D03*
X148550000Y-80525000D03*
X146400000Y-73525000D03*
X148500000Y-73525000D03*
D18*
X148550000Y-77325000D03*
D19*
X146050000Y-77325000D03*
X143550000Y-77325000D03*
D21*
X113970000Y-97460000D03*
D17*
X125950000Y-66703664D03*
X128050000Y-66703664D03*
X125050000Y-86000000D03*
X122950000Y-86000000D03*
D21*
X166040000Y-64440000D03*
X166040000Y-92380000D03*
%LPD*%
M02*
